<?xml version="1.0" encoding="UTF-8"?>
<svg xmlns="http://www.w3.org/2000/svg" xmlns:xlink="http://www.w3.org/1999/xlink" width="1080pt" height="720pt" viewBox="0 0 1080 720">
<defs>
<g>
<g id="glyph-0-0">
<path d="M 6.171875 -2.6875 C 6.171875 -1.820312 5.910156 -1.132812 5.390625 -0.625 C 4.878906 -0.125 4.160156 0.125 3.234375 0.125 C 2.472656 0.125 1.851562 -0.0390625 1.375 -0.375 C 0.90625 -0.71875 0.609375 -1.207031 0.484375 -1.84375 L 1.546875 -1.96875 C 1.765625 -1.15625 2.335938 -0.75 3.265625 -0.75 C 3.828125 -0.75 4.269531 -0.914062 4.59375 -1.25 C 4.914062 -1.59375 5.078125 -2.066406 5.078125 -2.671875 C 5.078125 -3.191406 4.914062 -3.609375 4.59375 -3.921875 C 4.269531 -4.242188 3.832031 -4.40625 3.28125 -4.40625 C 3 -4.40625 2.734375 -4.359375 2.484375 -4.265625 C 2.242188 -4.179688 2 -4.03125 1.75 -3.8125 L 0.71875 -3.8125 L 1 -8.25 L 5.6875 -8.25 L 5.6875 -7.359375 L 1.953125 -7.359375 L 1.796875 -4.734375 C 2.253906 -5.085938 2.820312 -5.265625 3.5 -5.265625 C 4.3125 -5.265625 4.957031 -5.023438 5.4375 -4.546875 C 5.925781 -4.078125 6.171875 -3.457031 6.171875 -2.6875 Z M 6.171875 -2.6875 "/>
</g>
<g id="glyph-0-1">
<path d="M 6.203125 -4.125 C 6.203125 -2.75 5.957031 -1.695312 5.46875 -0.96875 C 4.988281 -0.238281 4.273438 0.125 3.328125 0.125 C 2.378906 0.125 1.664062 -0.234375 1.1875 -0.953125 C 0.707031 -1.679688 0.46875 -2.738281 0.46875 -4.125 C 0.46875 -5.550781 0.695312 -6.613281 1.15625 -7.3125 C 1.625 -8.019531 2.359375 -8.375 3.359375 -8.375 C 4.328125 -8.375 5.039062 -8.015625 5.5 -7.296875 C 5.96875 -6.585938 6.203125 -5.53125 6.203125 -4.125 Z M 5.140625 -4.125 C 5.140625 -5.320312 5 -6.1875 4.71875 -6.71875 C 4.445312 -7.257812 3.992188 -7.53125 3.359375 -7.53125 C 2.710938 -7.53125 2.242188 -7.265625 1.953125 -6.734375 C 1.671875 -6.203125 1.53125 -5.332031 1.53125 -4.125 C 1.53125 -2.957031 1.671875 -2.101562 1.953125 -1.5625 C 2.242188 -1.019531 2.703125 -0.75 3.328125 -0.75 C 3.953125 -0.75 4.410156 -1.023438 4.703125 -1.578125 C 4.992188 -2.128906 5.140625 -2.976562 5.140625 -4.125 Z M 5.140625 -4.125 "/>
</g>
<g id="glyph-0-2">
<path d="M 0.921875 0 L 0.921875 -0.890625 L 3.015625 -0.890625 L 3.015625 -7.25 L 1.15625 -5.921875 L 1.15625 -6.921875 L 3.109375 -8.25 L 4.078125 -8.25 L 4.078125 -0.890625 L 6.09375 -0.890625 L 6.09375 0 Z M 0.921875 0 "/>
</g>
<g id="glyph-0-3">
<path d="M 0.609375 0 L 0.609375 -0.75 C 0.804688 -1.207031 1.046875 -1.609375 1.328125 -1.953125 C 1.617188 -2.304688 1.921875 -2.625 2.234375 -2.90625 C 2.554688 -3.1875 2.867188 -3.445312 3.171875 -3.6875 C 3.484375 -3.9375 3.765625 -4.179688 4.015625 -4.421875 C 4.265625 -4.660156 4.46875 -4.910156 4.625 -5.171875 C 4.78125 -5.441406 4.859375 -5.742188 4.859375 -6.078125 C 4.859375 -6.535156 4.722656 -6.890625 4.453125 -7.140625 C 4.191406 -7.390625 3.828125 -7.515625 3.359375 -7.515625 C 2.898438 -7.515625 2.523438 -7.390625 2.234375 -7.140625 C 1.953125 -6.898438 1.785156 -6.5625 1.734375 -6.125 L 0.65625 -6.21875 C 0.726562 -6.875 1.003906 -7.394531 1.484375 -7.78125 C 1.972656 -8.175781 2.597656 -8.375 3.359375 -8.375 C 4.179688 -8.375 4.816406 -8.175781 5.265625 -7.78125 C 5.710938 -7.394531 5.9375 -6.84375 5.9375 -6.125 C 5.9375 -5.800781 5.863281 -5.476562 5.71875 -5.15625 C 5.570312 -4.84375 5.351562 -4.523438 5.0625 -4.203125 C 4.78125 -3.890625 4.226562 -3.40625 3.40625 -2.75 C 2.957031 -2.375 2.597656 -2.039062 2.328125 -1.75 C 2.066406 -1.457031 1.878906 -1.171875 1.765625 -0.890625 L 6.078125 -0.890625 L 6.078125 0 Z M 0.609375 0 "/>
</g>
<g id="glyph-0-4">
<path d="M 6.171875 -3.203125 C 6.171875 -0.984375 5.394531 0.125 3.84375 0.125 C 2.863281 0.125 2.207031 -0.242188 1.875 -0.984375 L 1.84375 -0.984375 C 1.851562 -0.953125 1.859375 -0.617188 1.859375 0.015625 L 1.859375 2.484375 L 0.8125 2.484375 L 0.8125 -5.046875 C 0.8125 -5.703125 0.800781 -6.132812 0.78125 -6.34375 L 1.796875 -6.34375 C 1.796875 -6.320312 1.800781 -6.265625 1.8125 -6.171875 C 1.820312 -6.078125 1.832031 -5.929688 1.84375 -5.734375 C 1.851562 -5.535156 1.859375 -5.398438 1.859375 -5.328125 L 1.875 -5.328125 C 2.0625 -5.710938 2.304688 -5.992188 2.609375 -6.171875 C 2.921875 -6.359375 3.332031 -6.453125 3.84375 -6.453125 C 4.625 -6.453125 5.207031 -6.1875 5.59375 -5.65625 C 5.976562 -5.132812 6.171875 -4.316406 6.171875 -3.203125 Z M 5.0625 -3.171875 C 5.0625 -4.054688 4.941406 -4.6875 4.703125 -5.0625 C 4.460938 -5.445312 4.082031 -5.640625 3.5625 -5.640625 C 3.144531 -5.640625 2.816406 -5.550781 2.578125 -5.375 C 2.347656 -5.195312 2.171875 -4.921875 2.046875 -4.546875 C 1.921875 -4.171875 1.859375 -3.6875 1.859375 -3.09375 C 1.859375 -2.257812 1.988281 -1.644531 2.25 -1.25 C 2.519531 -0.851562 2.957031 -0.65625 3.5625 -0.65625 C 4.082031 -0.65625 4.460938 -0.847656 4.703125 -1.234375 C 4.941406 -1.617188 5.0625 -2.265625 5.0625 -3.171875 Z M 5.0625 -3.171875 "/>
</g>
<g id="glyph-0-5">
<path d="M 0.53125 -2.71875 L 0.53125 -3.65625 L 3.46875 -3.65625 L 3.46875 -2.71875 Z M 0.53125 -2.71875 "/>
</g>
<g id="glyph-0-6">
<path d="M 3.25 -0.046875 C 2.894531 0.046875 2.539062 0.09375 2.1875 0.09375 C 1.34375 0.09375 0.921875 -0.382812 0.921875 -1.34375 L 0.921875 -5.578125 L 0.1875 -5.578125 L 0.1875 -6.34375 L 0.953125 -6.34375 L 1.265625 -7.765625 L 1.96875 -7.765625 L 1.96875 -6.34375 L 3.140625 -6.34375 L 3.140625 -5.578125 L 1.96875 -5.578125 L 1.96875 -1.578125 C 1.96875 -1.265625 2.015625 -1.046875 2.109375 -0.921875 C 2.210938 -0.804688 2.390625 -0.75 2.640625 -0.75 C 2.773438 -0.75 2.976562 -0.773438 3.25 -0.828125 Z M 3.25 -0.046875 "/>
</g>
<g id="glyph-0-7">
<path d="M 2.421875 0.125 C 1.785156 0.125 1.304688 -0.0390625 0.984375 -0.375 C 0.671875 -0.71875 0.515625 -1.179688 0.515625 -1.765625 C 0.515625 -2.421875 0.726562 -2.925781 1.15625 -3.28125 C 1.59375 -3.632812 2.289062 -3.820312 3.25 -3.84375 L 4.671875 -3.875 L 4.671875 -4.21875 C 4.671875 -4.726562 4.5625 -5.09375 4.34375 -5.3125 C 4.125 -5.539062 3.78125 -5.65625 3.3125 -5.65625 C 2.84375 -5.65625 2.5 -5.570312 2.28125 -5.40625 C 2.0625 -5.25 1.929688 -4.992188 1.890625 -4.640625 L 0.796875 -4.75 C 0.972656 -5.882812 1.816406 -6.453125 3.328125 -6.453125 C 4.128906 -6.453125 4.726562 -6.269531 5.125 -5.90625 C 5.53125 -5.539062 5.734375 -5.015625 5.734375 -4.328125 L 5.734375 -1.59375 C 5.734375 -1.28125 5.773438 -1.046875 5.859375 -0.890625 C 5.941406 -0.734375 6.097656 -0.65625 6.328125 -0.65625 C 6.429688 -0.65625 6.546875 -0.664062 6.671875 -0.6875 L 6.671875 -0.03125 C 6.410156 0.03125 6.140625 0.0625 5.859375 0.0625 C 5.472656 0.0625 5.1875 -0.0390625 5 -0.25 C 4.820312 -0.457031 4.722656 -0.78125 4.703125 -1.21875 L 4.671875 -1.21875 C 4.398438 -0.726562 4.082031 -0.378906 3.71875 -0.171875 C 3.363281 0.0234375 2.929688 0.125 2.421875 0.125 Z M 2.671875 -0.671875 C 3.054688 -0.671875 3.398438 -0.757812 3.703125 -0.9375 C 4.003906 -1.113281 4.238281 -1.351562 4.40625 -1.65625 C 4.582031 -1.96875 4.671875 -2.285156 4.671875 -2.609375 L 4.671875 -3.125 L 3.515625 -3.109375 C 3.015625 -3.097656 2.632812 -3.046875 2.375 -2.953125 C 2.125 -2.859375 1.929688 -2.710938 1.796875 -2.515625 C 1.660156 -2.328125 1.59375 -2.070312 1.59375 -1.75 C 1.59375 -1.40625 1.6875 -1.140625 1.875 -0.953125 C 2.0625 -0.765625 2.328125 -0.671875 2.671875 -0.671875 Z M 2.671875 -0.671875 "/>
</g>
<g id="glyph-0-8">
<path d="M 1.84375 -6.34375 L 1.84375 -2.328125 C 1.84375 -1.898438 1.882812 -1.570312 1.96875 -1.34375 C 2.050781 -1.113281 2.179688 -0.945312 2.359375 -0.84375 C 2.535156 -0.75 2.796875 -0.703125 3.140625 -0.703125 C 3.648438 -0.703125 4.050781 -0.875 4.34375 -1.21875 C 4.632812 -1.5625 4.78125 -2.046875 4.78125 -2.671875 L 4.78125 -6.34375 L 5.84375 -6.34375 L 5.84375 -1.359375 C 5.84375 -0.617188 5.851562 -0.164062 5.875 0 L 4.875 0 C 4.875 -0.0195312 4.867188 -0.0703125 4.859375 -0.15625 C 4.859375 -0.238281 4.851562 -0.335938 4.84375 -0.453125 C 4.84375 -0.566406 4.835938 -0.773438 4.828125 -1.078125 L 4.8125 -1.078125 C 4.570312 -0.640625 4.289062 -0.328125 3.96875 -0.140625 C 3.65625 0.0351562 3.265625 0.125 2.796875 0.125 C 2.097656 0.125 1.585938 -0.046875 1.265625 -0.390625 C 0.941406 -0.742188 0.78125 -1.316406 0.78125 -2.109375 L 0.78125 -6.34375 Z M 1.84375 -6.34375 "/>
</g>
<g id="glyph-1-0">
<path d="M -2.6875 -6.171875 C -1.820312 -6.171875 -1.132812 -5.910156 -0.625 -5.390625 C -0.125 -4.878906 0.125 -4.160156 0.125 -3.234375 C 0.125 -2.472656 -0.0390625 -1.851562 -0.375 -1.375 C -0.71875 -0.90625 -1.207031 -0.609375 -1.84375 -0.484375 L -1.96875 -1.546875 C -1.15625 -1.765625 -0.75 -2.335938 -0.75 -3.265625 C -0.75 -3.828125 -0.914062 -4.269531 -1.25 -4.59375 C -1.59375 -4.914062 -2.066406 -5.078125 -2.671875 -5.078125 C -3.191406 -5.078125 -3.609375 -4.914062 -3.921875 -4.59375 C -4.242188 -4.269531 -4.40625 -3.832031 -4.40625 -3.28125 C -4.40625 -3 -4.359375 -2.734375 -4.265625 -2.484375 C -4.179688 -2.242188 -4.03125 -2 -3.8125 -1.75 L -3.8125 -0.71875 L -8.25 -1 L -8.25 -5.6875 L -7.359375 -5.6875 L -7.359375 -1.953125 L -4.734375 -1.796875 C -5.085938 -2.253906 -5.265625 -2.820312 -5.265625 -3.5 C -5.265625 -4.3125 -5.023438 -4.957031 -4.546875 -5.4375 C -4.078125 -5.925781 -3.457031 -6.171875 -2.6875 -6.171875 Z M -2.6875 -6.171875 "/>
</g>
<g id="glyph-1-1">
<path d="M -4.125 -6.203125 C -2.75 -6.203125 -1.695312 -5.957031 -0.96875 -5.46875 C -0.238281 -4.988281 0.125 -4.273438 0.125 -3.328125 C 0.125 -2.378906 -0.234375 -1.664062 -0.953125 -1.1875 C -1.679688 -0.707031 -2.738281 -0.46875 -4.125 -0.46875 C -5.550781 -0.46875 -6.613281 -0.695312 -7.3125 -1.15625 C -8.019531 -1.625 -8.375 -2.359375 -8.375 -3.359375 C -8.375 -4.328125 -8.015625 -5.039062 -7.296875 -5.5 C -6.585938 -5.96875 -5.53125 -6.203125 -4.125 -6.203125 Z M -4.125 -5.140625 C -5.320312 -5.140625 -6.1875 -5 -6.71875 -4.71875 C -7.257812 -4.445312 -7.53125 -3.992188 -7.53125 -3.359375 C -7.53125 -2.710938 -7.265625 -2.242188 -6.734375 -1.953125 C -6.203125 -1.671875 -5.332031 -1.53125 -4.125 -1.53125 C -2.957031 -1.53125 -2.101562 -1.671875 -1.5625 -1.953125 C -1.019531 -2.242188 -0.75 -2.703125 -0.75 -3.328125 C -0.75 -3.953125 -1.023438 -4.410156 -1.578125 -4.703125 C -2.128906 -4.992188 -2.976562 -5.140625 -4.125 -5.140625 Z M -4.125 -5.140625 "/>
</g>
<g id="glyph-1-2">
<path d="M 0 -0.921875 L -0.890625 -0.921875 L -0.890625 -3.015625 L -7.25 -3.015625 L -5.921875 -1.15625 L -6.921875 -1.15625 L -8.25 -3.109375 L -8.25 -4.078125 L -0.890625 -4.078125 L -0.890625 -6.09375 L 0 -6.09375 Z M 0 -0.921875 "/>
</g>
<g id="glyph-1-3">
<path d="M -0.046875 -3.25 C 0.046875 -2.894531 0.09375 -2.539062 0.09375 -2.1875 C 0.09375 -1.34375 -0.382812 -0.921875 -1.34375 -0.921875 L -5.578125 -0.921875 L -5.578125 -0.1875 L -6.34375 -0.1875 L -6.34375 -0.953125 L -7.765625 -1.265625 L -7.765625 -1.96875 L -6.34375 -1.96875 L -6.34375 -3.140625 L -5.578125 -3.140625 L -5.578125 -1.96875 L -1.578125 -1.96875 C -1.265625 -1.96875 -1.046875 -2.015625 -0.921875 -2.109375 C -0.804688 -2.210938 -0.75 -2.390625 -0.75 -2.640625 C -0.75 -2.773438 -0.773438 -2.976562 -0.828125 -3.25 Z M -0.046875 -3.25 "/>
</g>
<g id="glyph-1-4">
<path d="M -2.71875 -0.53125 L -3.65625 -0.53125 L -3.65625 -3.46875 L -2.71875 -3.46875 Z M -2.71875 -0.53125 "/>
</g>
<g id="glyph-1-5">
<path d="M 0.125 -2.421875 C 0.125 -1.785156 -0.0390625 -1.304688 -0.375 -0.984375 C -0.71875 -0.671875 -1.179688 -0.515625 -1.765625 -0.515625 C -2.421875 -0.515625 -2.925781 -0.726562 -3.28125 -1.15625 C -3.632812 -1.59375 -3.820312 -2.289062 -3.84375 -3.25 L -3.875 -4.671875 L -4.21875 -4.671875 C -4.726562 -4.671875 -5.09375 -4.5625 -5.3125 -4.34375 C -5.539062 -4.125 -5.65625 -3.78125 -5.65625 -3.3125 C -5.65625 -2.84375 -5.570312 -2.5 -5.40625 -2.28125 C -5.25 -2.0625 -4.992188 -1.929688 -4.640625 -1.890625 L -4.75 -0.796875 C -5.882812 -0.972656 -6.453125 -1.816406 -6.453125 -3.328125 C -6.453125 -4.128906 -6.269531 -4.726562 -5.90625 -5.125 C -5.539062 -5.53125 -5.015625 -5.734375 -4.328125 -5.734375 L -1.59375 -5.734375 C -1.28125 -5.734375 -1.046875 -5.773438 -0.890625 -5.859375 C -0.734375 -5.941406 -0.65625 -6.097656 -0.65625 -6.328125 C -0.65625 -6.429688 -0.664062 -6.546875 -0.6875 -6.671875 L -0.03125 -6.671875 C 0.03125 -6.410156 0.0625 -6.140625 0.0625 -5.859375 C 0.0625 -5.472656 -0.0390625 -5.1875 -0.25 -5 C -0.457031 -4.820312 -0.78125 -4.722656 -1.21875 -4.703125 L -1.21875 -4.671875 C -0.726562 -4.398438 -0.378906 -4.082031 -0.171875 -3.71875 C 0.0234375 -3.363281 0.125 -2.929688 0.125 -2.421875 Z M -0.671875 -2.671875 C -0.671875 -3.054688 -0.757812 -3.398438 -0.9375 -3.703125 C -1.113281 -4.003906 -1.351562 -4.238281 -1.65625 -4.40625 C -1.96875 -4.582031 -2.285156 -4.671875 -2.609375 -4.671875 L -3.125 -4.671875 L -3.109375 -3.515625 C -3.097656 -3.015625 -3.046875 -2.632812 -2.953125 -2.375 C -2.859375 -2.125 -2.710938 -1.929688 -2.515625 -1.796875 C -2.328125 -1.660156 -2.070312 -1.59375 -1.75 -1.59375 C -1.40625 -1.59375 -1.140625 -1.6875 -0.953125 -1.875 C -0.765625 -2.0625 -0.671875 -2.328125 -0.671875 -2.671875 Z M -0.671875 -2.671875 "/>
</g>
<g id="glyph-1-6">
<path d="M -6.34375 -1.84375 L -2.328125 -1.84375 C -1.898438 -1.84375 -1.570312 -1.882812 -1.34375 -1.96875 C -1.113281 -2.050781 -0.945312 -2.179688 -0.84375 -2.359375 C -0.75 -2.535156 -0.703125 -2.796875 -0.703125 -3.140625 C -0.703125 -3.648438 -0.875 -4.050781 -1.21875 -4.34375 C -1.5625 -4.632812 -2.046875 -4.78125 -2.671875 -4.78125 L -6.34375 -4.78125 L -6.34375 -5.84375 L -1.359375 -5.84375 C -0.617188 -5.84375 -0.164062 -5.851562 0 -5.875 L 0 -4.875 C -0.0195312 -4.875 -0.0703125 -4.867188 -0.15625 -4.859375 C -0.238281 -4.859375 -0.335938 -4.851562 -0.453125 -4.84375 C -0.566406 -4.84375 -0.773438 -4.835938 -1.078125 -4.828125 L -1.078125 -4.8125 C -0.640625 -4.570312 -0.328125 -4.289062 -0.140625 -3.96875 C 0.0351562 -3.65625 0.125 -3.265625 0.125 -2.796875 C 0.125 -2.097656 -0.046875 -1.585938 -0.390625 -1.265625 C -0.742188 -0.941406 -1.316406 -0.78125 -2.109375 -0.78125 L -6.34375 -0.78125 Z M -6.34375 -1.84375 "/>
</g>
</g>
</defs>
<rect x="-108" y="-72" width="1296" height="864" fill="rgb(100%, 100%, 100%)" fill-opacity="1"/>
<path fill="none" stroke-width="0.75" stroke-linecap="round" stroke-linejoin="round" stroke="rgb(0%, 0%, 0%)" stroke-opacity="1" stroke-miterlimit="10" d="M 174.878906 596.902344 C 174.878906 600.503906 169.476562 600.503906 169.476562 596.902344 C 169.476562 593.300781 174.878906 593.300781 174.878906 596.902344 "/>
<path fill="none" stroke-width="0.75" stroke-linecap="round" stroke-linejoin="round" stroke="rgb(0%, 0%, 0%)" stroke-opacity="1" stroke-miterlimit="10" d="M 528.433594 443.464844 C 528.433594 447.066406 523.035156 447.066406 523.035156 443.464844 C 523.035156 439.867188 528.433594 439.867188 528.433594 443.464844 "/>
<path fill="none" stroke-width="0.75" stroke-linecap="round" stroke-linejoin="round" stroke="rgb(0%, 0%, 0%)" stroke-opacity="1" stroke-miterlimit="10" d="M 471.101562 499.261719 C 471.101562 502.863281 465.699219 502.863281 465.699219 499.261719 C 465.699219 495.660156 471.101562 495.660156 471.101562 499.261719 "/>
<path fill="none" stroke-width="0.75" stroke-linecap="round" stroke-linejoin="round" stroke="rgb(0%, 0%, 0%)" stroke-opacity="1" stroke-miterlimit="10" d="M 365.988281 495.773438 C 365.988281 499.375 360.589844 499.375 360.589844 495.773438 C 360.589844 492.175781 365.988281 492.175781 365.988281 495.773438 "/>
<path fill="none" stroke-width="0.75" stroke-linecap="round" stroke-linejoin="round" stroke="rgb(0%, 0%, 0%)" stroke-opacity="1" stroke-miterlimit="10" d="M 580.988281 345.824219 C 580.988281 349.425781 575.589844 349.425781 575.589844 345.824219 C 575.589844 342.226562 580.988281 342.226562 580.988281 345.824219 "/>
<path fill="none" stroke-width="0.75" stroke-linecap="round" stroke-linejoin="round" stroke="rgb(0%, 0%, 0%)" stroke-opacity="1" stroke-miterlimit="10" d="M 528.433594 387.671875 C 528.433594 391.273438 523.035156 391.273438 523.035156 387.671875 C 523.035156 384.070312 528.433594 384.070312 528.433594 387.671875 "/>
<path fill="none" stroke-width="0.75" stroke-linecap="round" stroke-linejoin="round" stroke="rgb(0%, 0%, 0%)" stroke-opacity="1" stroke-miterlimit="10" d="M 127.101562 600.390625 C 127.101562 603.988281 121.699219 603.988281 121.699219 600.390625 C 121.699219 596.789062 127.101562 596.789062 127.101562 600.390625 "/>
<path fill="none" stroke-width="0.75" stroke-linecap="round" stroke-linejoin="round" stroke="rgb(0%, 0%, 0%)" stroke-opacity="1" stroke-miterlimit="10" d="M 131.878906 607.363281 C 131.878906 610.964844 126.476562 610.964844 126.476562 607.363281 C 126.476562 603.765625 131.878906 603.765625 131.878906 607.363281 "/>
<path fill="none" stroke-width="0.75" stroke-linecap="round" stroke-linejoin="round" stroke="rgb(0%, 0%, 0%)" stroke-opacity="1" stroke-miterlimit="10" d="M 442.433594 398.132812 C 442.433594 401.734375 437.035156 401.734375 437.035156 398.132812 C 437.035156 394.535156 442.433594 394.535156 442.433594 398.132812 "/>
<path fill="none" stroke-width="0.75" stroke-linecap="round" stroke-linejoin="round" stroke="rgb(0%, 0%, 0%)" stroke-opacity="1" stroke-miterlimit="10" d="M 356.433594 464.390625 C 356.433594 467.988281 351.035156 467.988281 351.035156 464.390625 C 351.035156 460.789062 356.433594 460.789062 356.433594 464.390625 "/>
<path fill="none" stroke-width="0.75" stroke-linecap="round" stroke-linejoin="round" stroke="rgb(0%, 0%, 0%)" stroke-opacity="1" stroke-miterlimit="10" d="M 533.210938 408.59375 C 533.210938 412.195312 527.8125 412.195312 527.8125 408.59375 C 527.8125 404.996094 533.210938 404.996094 533.210938 408.59375 "/>
<path fill="none" stroke-width="0.75" stroke-linecap="round" stroke-linejoin="round" stroke="rgb(0%, 0%, 0%)" stroke-opacity="1" stroke-miterlimit="10" d="M 724.320312 279.570312 C 724.320312 283.167969 718.921875 283.167969 718.921875 279.570312 C 718.921875 275.96875 724.320312 275.96875 724.320312 279.570312 "/>
<path fill="none" stroke-width="0.75" stroke-linecap="round" stroke-linejoin="round" stroke="rgb(0%, 0%, 0%)" stroke-opacity="1" stroke-miterlimit="10" d="M 98.433594 624.800781 C 98.433594 628.398438 93.035156 628.398438 93.035156 624.800781 C 93.035156 621.199219 98.433594 621.199219 98.433594 624.800781 "/>
<path fill="none" stroke-width="0.75" stroke-linecap="round" stroke-linejoin="round" stroke="rgb(0%, 0%, 0%)" stroke-opacity="1" stroke-miterlimit="10" d="M 456.765625 366.75 C 456.765625 370.347656 451.367188 370.347656 451.367188 366.75 C 451.367188 363.148438 456.765625 363.148438 456.765625 366.75 "/>
<path fill="none" stroke-width="0.75" stroke-linecap="round" stroke-linejoin="round" stroke="rgb(0%, 0%, 0%)" stroke-opacity="1" stroke-miterlimit="10" d="M 122.320312 582.953125 C 122.320312 586.554688 116.921875 586.554688 116.921875 582.953125 C 116.921875 579.355469 122.320312 579.355469 122.320312 582.953125 "/>
<path fill="none" stroke-width="0.75" stroke-linecap="round" stroke-linejoin="round" stroke="rgb(0%, 0%, 0%)" stroke-opacity="1" stroke-miterlimit="10" d="M 265.65625 555.054688 C 265.65625 558.65625 260.253906 558.65625 260.253906 555.054688 C 260.253906 551.457031 265.65625 551.457031 265.65625 555.054688 "/>
<path fill="none" stroke-width="0.75" stroke-linecap="round" stroke-linejoin="round" stroke="rgb(0%, 0%, 0%)" stroke-opacity="1" stroke-miterlimit="10" d="M 375.542969 443.464844 C 375.542969 447.066406 370.144531 447.066406 370.144531 443.464844 C 370.144531 439.867188 375.542969 439.867188 375.542969 443.464844 "/>
<path fill="none" stroke-width="0.75" stroke-linecap="round" stroke-linejoin="round" stroke="rgb(0%, 0%, 0%)" stroke-opacity="1" stroke-miterlimit="10" d="M 475.878906 439.980469 C 475.878906 443.578125 470.476562 443.578125 470.476562 439.980469 C 470.476562 436.378906 475.878906 436.378906 475.878906 439.980469 "/>
<path fill="none" stroke-width="0.75" stroke-linecap="round" stroke-linejoin="round" stroke="rgb(0%, 0%, 0%)" stroke-opacity="1" stroke-miterlimit="10" d="M 542.765625 443.464844 C 542.765625 447.066406 537.367188 447.066406 537.367188 443.464844 C 537.367188 439.867188 542.765625 439.867188 542.765625 443.464844 "/>
<path fill="none" stroke-width="0.75" stroke-linecap="round" stroke-linejoin="round" stroke="rgb(0%, 0%, 0%)" stroke-opacity="1" stroke-miterlimit="10" d="M 346.878906 541.109375 C 346.878906 544.707031 341.476562 544.707031 341.476562 541.109375 C 341.476562 537.507812 346.878906 537.507812 346.878906 541.109375 "/>
<path fill="none" stroke-width="0.75" stroke-linecap="round" stroke-linejoin="round" stroke="rgb(0%, 0%, 0%)" stroke-opacity="1" stroke-miterlimit="10" d="M 351.65625 478.339844 C 351.65625 481.9375 346.253906 481.9375 346.253906 478.339844 C 346.253906 474.738281 351.65625 474.738281 351.65625 478.339844 "/>
<path fill="none" stroke-width="0.75" stroke-linecap="round" stroke-linejoin="round" stroke="rgb(0%, 0%, 0%)" stroke-opacity="1" stroke-miterlimit="10" d="M 356.433594 492.289062 C 356.433594 495.886719 351.035156 495.886719 351.035156 492.289062 C 351.035156 488.6875 356.433594 488.6875 356.433594 492.289062 "/>
<path fill="none" stroke-width="0.75" stroke-linecap="round" stroke-linejoin="round" stroke="rgb(0%, 0%, 0%)" stroke-opacity="1" stroke-miterlimit="10" d="M 208.320312 541.109375 C 208.320312 544.707031 202.921875 544.707031 202.921875 541.109375 C 202.921875 537.507812 208.320312 537.507812 208.320312 541.109375 "/>
<path fill="none" stroke-width="0.75" stroke-linecap="round" stroke-linejoin="round" stroke="rgb(0%, 0%, 0%)" stroke-opacity="1" stroke-miterlimit="10" d="M 189.210938 569.003906 C 189.210938 572.605469 183.8125 572.605469 183.8125 569.003906 C 183.8125 565.40625 189.210938 565.40625 189.210938 569.003906 "/>
<path fill="none" stroke-width="0.75" stroke-linecap="round" stroke-linejoin="round" stroke="rgb(0%, 0%, 0%)" stroke-opacity="1" stroke-miterlimit="10" d="M 633.542969 363.261719 C 633.542969 366.863281 628.144531 366.863281 628.144531 363.261719 C 628.144531 359.660156 633.542969 359.660156 633.542969 363.261719 "/>
<path fill="none" stroke-width="0.75" stroke-linecap="round" stroke-linejoin="round" stroke="rgb(0%, 0%, 0%)" stroke-opacity="1" stroke-miterlimit="10" d="M 590.542969 338.851562 C 590.542969 342.453125 585.144531 342.453125 585.144531 338.851562 C 585.144531 335.25 590.542969 335.25 590.542969 338.851562 "/>
<path fill="none" stroke-width="0.75" stroke-linecap="round" stroke-linejoin="round" stroke="rgb(0%, 0%, 0%)" stroke-opacity="1" stroke-miterlimit="10" d="M 399.433594 422.542969 C 399.433594 426.144531 394.035156 426.144531 394.035156 422.542969 C 394.035156 418.945312 399.433594 418.945312 399.433594 422.542969 "/>
<path fill="none" stroke-width="0.75" stroke-linecap="round" stroke-linejoin="round" stroke="rgb(0%, 0%, 0%)" stroke-opacity="1" stroke-miterlimit="10" d="M 346.878906 502.75 C 346.878906 506.347656 341.476562 506.347656 341.476562 502.75 C 341.476562 499.148438 346.878906 499.148438 346.878906 502.75 "/>
<path fill="none" stroke-width="0.75" stroke-linecap="round" stroke-linejoin="round" stroke="rgb(0%, 0%, 0%)" stroke-opacity="1" stroke-miterlimit="10" d="M 337.320312 366.75 C 337.320312 370.347656 331.921875 370.347656 331.921875 366.75 C 331.921875 363.148438 337.320312 363.148438 337.320312 366.75 "/>
<path fill="none" stroke-width="0.75" stroke-linecap="round" stroke-linejoin="round" stroke="rgb(0%, 0%, 0%)" stroke-opacity="1" stroke-miterlimit="10" d="M 294.320312 499.261719 C 294.320312 502.863281 288.921875 502.863281 288.921875 499.261719 C 288.921875 495.660156 294.320312 495.660156 294.320312 499.261719 "/>
<path fill="none" stroke-width="0.75" stroke-linecap="round" stroke-linejoin="round" stroke="rgb(0%, 0%, 0%)" stroke-opacity="1" stroke-miterlimit="10" d="M 270.433594 506.234375 C 270.433594 509.835938 265.035156 509.835938 265.035156 506.234375 C 265.035156 502.636719 270.433594 502.636719 270.433594 506.234375 "/>
<path fill="none" stroke-width="0.75" stroke-linecap="round" stroke-linejoin="round" stroke="rgb(0%, 0%, 0%)" stroke-opacity="1" stroke-miterlimit="10" d="M 141.433594 572.492188 C 141.433594 576.09375 136.035156 576.09375 136.035156 572.492188 C 136.035156 568.890625 141.433594 568.890625 141.433594 572.492188 "/>
<path fill="none" stroke-width="0.75" stroke-linecap="round" stroke-linejoin="round" stroke="rgb(0%, 0%, 0%)" stroke-opacity="1" stroke-miterlimit="10" d="M 127.101562 589.929688 C 127.101562 593.527344 121.699219 593.527344 121.699219 589.929688 C 121.699219 586.328125 127.101562 586.328125 127.101562 589.929688 "/>
<path fill="none" stroke-width="0.75" stroke-linecap="round" stroke-linejoin="round" stroke="rgb(0%, 0%, 0%)" stroke-opacity="1" stroke-miterlimit="10" d="M 423.320312 283.054688 C 423.320312 286.65625 417.921875 286.65625 417.921875 283.054688 C 417.921875 279.457031 423.320312 279.457031 423.320312 283.054688 "/>
<path fill="none" stroke-width="0.75" stroke-linecap="round" stroke-linejoin="round" stroke="rgb(0%, 0%, 0%)" stroke-opacity="1" stroke-miterlimit="10" d="M 547.542969 366.75 C 547.542969 370.347656 542.144531 370.347656 542.144531 366.75 C 542.144531 363.148438 547.542969 363.148438 547.542969 366.75 "/>
<path fill="none" stroke-width="0.75" stroke-linecap="round" stroke-linejoin="round" stroke="rgb(0%, 0%, 0%)" stroke-opacity="1" stroke-miterlimit="10" d="M 289.542969 479.382812 C 289.542969 482.984375 284.144531 482.984375 284.144531 479.382812 C 284.144531 475.785156 289.542969 475.785156 289.542969 479.382812 "/>
<path fill="none" stroke-width="0.75" stroke-linecap="round" stroke-linejoin="round" stroke="rgb(0%, 0%, 0%)" stroke-opacity="1" stroke-miterlimit="10" d="M 542.765625 324.902344 C 542.765625 328.503906 537.367188 328.503906 537.367188 324.902344 C 537.367188 321.300781 542.765625 321.300781 542.765625 324.902344 "/>
<path fill="none" stroke-width="0.75" stroke-linecap="round" stroke-linejoin="round" stroke="rgb(0%, 0%, 0%)" stroke-opacity="1" stroke-miterlimit="10" d="M 385.101562 405.109375 C 385.101562 408.707031 379.699219 408.707031 379.699219 405.109375 C 379.699219 401.507812 385.101562 401.507812 385.101562 405.109375 "/>
<path fill="none" stroke-width="0.75" stroke-linecap="round" stroke-linejoin="round" stroke="rgb(0%, 0%, 0%)" stroke-opacity="1" stroke-miterlimit="10" d="M 146.210938 586.789062 C 146.210938 590.390625 140.8125 590.390625 140.8125 586.789062 C 140.8125 583.191406 146.210938 583.191406 146.210938 586.789062 "/>
<path fill="none" stroke-width="0.75" stroke-linecap="round" stroke-linejoin="round" stroke="rgb(0%, 0%, 0%)" stroke-opacity="1" stroke-miterlimit="10" d="M 198.765625 566.5625 C 198.765625 570.164062 193.367188 570.164062 193.367188 566.5625 C 193.367188 562.964844 198.765625 562.964844 198.765625 566.5625 "/>
<path fill="none" stroke-width="0.75" stroke-linecap="round" stroke-linejoin="round" stroke="rgb(0%, 0%, 0%)" stroke-opacity="1" stroke-miterlimit="10" d="M 361.210938 415.21875 C 361.210938 418.820312 355.8125 418.820312 355.8125 415.21875 C 355.8125 411.621094 361.210938 411.621094 361.210938 415.21875 "/>
<path fill="none" stroke-width="0.75" stroke-linecap="round" stroke-linejoin="round" stroke="rgb(0%, 0%, 0%)" stroke-opacity="1" stroke-miterlimit="10" d="M 294.320312 474.851562 C 294.320312 478.453125 288.921875 478.453125 288.921875 474.851562 C 288.921875 471.25 294.320312 471.25 294.320312 474.851562 "/>
<path fill="none" stroke-width="0.75" stroke-linecap="round" stroke-linejoin="round" stroke="rgb(0%, 0%, 0%)" stroke-opacity="1" stroke-miterlimit="10" d="M 289.542969 494.726562 C 289.542969 498.328125 284.144531 498.328125 284.144531 494.726562 C 284.144531 491.128906 289.542969 491.128906 289.542969 494.726562 "/>
<path fill="none" stroke-width="0.75" stroke-linecap="round" stroke-linejoin="round" stroke="rgb(0%, 0%, 0%)" stroke-opacity="1" stroke-miterlimit="10" d="M 843.765625 98.234375 C 843.765625 101.835938 838.367188 101.835938 838.367188 98.234375 C 838.367188 94.636719 843.765625 94.636719 843.765625 98.234375 "/>
<path fill="none" stroke-width="0.75" stroke-linecap="round" stroke-linejoin="round" stroke="rgb(0%, 0%, 0%)" stroke-opacity="1" stroke-miterlimit="10" d="M 251.320312 513.90625 C 251.320312 517.507812 245.921875 517.507812 245.921875 513.90625 C 245.921875 510.308594 251.320312 510.308594 251.320312 513.90625 "/>
<path fill="none" stroke-width="0.75" stroke-linecap="round" stroke-linejoin="round" stroke="rgb(0%, 0%, 0%)" stroke-opacity="1" stroke-miterlimit="10" d="M 571.433594 344.082031 C 571.433594 347.683594 566.035156 347.683594 566.035156 344.082031 C 566.035156 340.480469 571.433594 340.480469 571.433594 344.082031 "/>
<path fill="none" stroke-width="0.75" stroke-linecap="round" stroke-linejoin="round" stroke="rgb(0%, 0%, 0%)" stroke-opacity="1" stroke-miterlimit="10" d="M 394.65625 429.867188 C 394.65625 433.464844 389.253906 433.464844 389.253906 429.867188 C 389.253906 426.265625 394.65625 426.265625 394.65625 429.867188 "/>
<path fill="none" stroke-width="0.75" stroke-linecap="round" stroke-linejoin="round" stroke="rgb(0%, 0%, 0%)" stroke-opacity="1" stroke-miterlimit="10" d="M 337.320312 435.445312 C 337.320312 439.046875 331.921875 439.046875 331.921875 435.445312 C 331.921875 431.847656 337.320312 431.847656 337.320312 435.445312 "/>
<path fill="none" stroke-width="0.75" stroke-linecap="round" stroke-linejoin="round" stroke="rgb(0%, 0%, 0%)" stroke-opacity="1" stroke-miterlimit="10" d="M 404.210938 339.898438 C 404.210938 343.496094 398.8125 343.496094 398.8125 339.898438 C 398.8125 336.296875 404.210938 336.296875 404.210938 339.898438 "/>
<path fill="none" stroke-width="0.75" stroke-linecap="round" stroke-linejoin="round" stroke="rgb(0%, 0%, 0%)" stroke-opacity="1" stroke-miterlimit="10" d="M 279.988281 466.480469 C 279.988281 470.082031 274.589844 470.082031 274.589844 466.480469 C 274.589844 462.882812 279.988281 462.882812 279.988281 466.480469 "/>
<path fill="none" stroke-width="0.75" stroke-linecap="round" stroke-linejoin="round" stroke="rgb(0%, 0%, 0%)" stroke-opacity="1" stroke-miterlimit="10" d="M 279.988281 490.195312 C 279.988281 493.792969 274.589844 493.792969 274.589844 490.195312 C 274.589844 486.59375 279.988281 486.59375 279.988281 490.195312 "/>
<path fill="none" stroke-width="0.75" stroke-linecap="round" stroke-linejoin="round" stroke="rgb(0%, 0%, 0%)" stroke-opacity="1" stroke-miterlimit="10" d="M 136.65625 587.136719 C 136.65625 590.738281 131.253906 590.738281 131.253906 587.136719 C 131.253906 583.539062 136.65625 583.539062 136.65625 587.136719 "/>
<path fill="none" stroke-width="0.75" stroke-linecap="round" stroke-linejoin="round" stroke="rgb(0%, 0%, 0%)" stroke-opacity="1" stroke-miterlimit="10" d="M 662.210938 174.953125 C 662.210938 178.554688 656.8125 178.554688 656.8125 174.953125 C 656.8125 171.355469 662.210938 171.355469 662.210938 174.953125 "/>
<path fill="none" stroke-width="0.75" stroke-linecap="round" stroke-linejoin="round" stroke="rgb(0%, 0%, 0%)" stroke-opacity="1" stroke-miterlimit="10" d="M 600.101562 279.570312 C 600.101562 283.167969 594.699219 283.167969 594.699219 279.570312 C 594.699219 275.96875 600.101562 275.96875 600.101562 279.570312 "/>
<path fill="none" stroke-width="0.75" stroke-linecap="round" stroke-linejoin="round" stroke="rgb(0%, 0%, 0%)" stroke-opacity="1" stroke-miterlimit="10" d="M 131.878906 572.839844 C 131.878906 576.441406 126.476562 576.441406 126.476562 572.839844 C 126.476562 569.242188 131.878906 569.242188 131.878906 572.839844 "/>
<path fill="none" stroke-width="0.75" stroke-linecap="round" stroke-linejoin="round" stroke="rgb(0%, 0%, 0%)" stroke-opacity="1" stroke-miterlimit="10" d="M 241.765625 516.347656 C 241.765625 519.949219 236.367188 519.949219 236.367188 516.347656 C 236.367188 512.75 241.765625 512.75 241.765625 516.347656 "/>
<path fill="none" stroke-width="0.75" stroke-linecap="round" stroke-linejoin="round" stroke="rgb(0%, 0%, 0%)" stroke-opacity="1" stroke-miterlimit="10" d="M 122.320312 615.382812 C 122.320312 618.984375 116.921875 618.984375 116.921875 615.382812 C 116.921875 611.785156 122.320312 611.785156 122.320312 615.382812 "/>
<path fill="none" stroke-width="0.75" stroke-linecap="round" stroke-linejoin="round" stroke="rgb(0%, 0%, 0%)" stroke-opacity="1" stroke-miterlimit="10" d="M 1015.765625 80.800781 C 1015.765625 84.398438 1010.367188 84.398438 1010.367188 80.800781 C 1010.367188 77.199219 1015.765625 77.199219 1015.765625 80.800781 "/>
<path fill="none" stroke-width="0.75" stroke-linecap="round" stroke-linejoin="round" stroke="rgb(0%, 0%, 0%)" stroke-opacity="1" stroke-miterlimit="10" d="M 514.101562 332.921875 C 514.101562 336.523438 508.699219 336.523438 508.699219 332.921875 C 508.699219 329.324219 514.101562 329.324219 514.101562 332.921875 "/>
<path fill="none" stroke-width="0.75" stroke-linecap="round" stroke-linejoin="round" stroke="rgb(0%, 0%, 0%)" stroke-opacity="1" stroke-miterlimit="10" d="M 284.765625 491.242188 C 284.765625 494.839844 279.367188 494.839844 279.367188 491.242188 C 279.367188 487.640625 284.765625 487.640625 284.765625 491.242188 "/>
<path fill="none" stroke-width="0.75" stroke-linecap="round" stroke-linejoin="round" stroke="rgb(0%, 0%, 0%)" stroke-opacity="1" stroke-miterlimit="10" d="M 303.878906 479.035156 C 303.878906 482.636719 298.476562 482.636719 298.476562 479.035156 C 298.476562 475.4375 303.878906 475.4375 303.878906 479.035156 "/>
<path fill="none" stroke-width="0.75" stroke-linecap="round" stroke-linejoin="round" stroke="rgb(0%, 0%, 0%)" stroke-opacity="1" stroke-miterlimit="10" d="M 533.210938 276.082031 C 533.210938 279.683594 527.8125 279.683594 527.8125 276.082031 C 527.8125 272.480469 533.210938 272.480469 533.210938 276.082031 "/>
<path fill="none" stroke-width="0.75" stroke-linecap="round" stroke-linejoin="round" stroke="rgb(0%, 0%, 0%)" stroke-opacity="1" stroke-miterlimit="10" d="M 475.878906 359.773438 C 475.878906 363.375 470.476562 363.375 470.476562 359.773438 C 470.476562 356.175781 475.878906 356.175781 475.878906 359.773438 "/>
<path fill="none" stroke-width="0.75" stroke-linecap="round" stroke-linejoin="round" stroke="rgb(0%, 0%, 0%)" stroke-opacity="1" stroke-miterlimit="10" d="M 308.65625 492.636719 C 308.65625 496.234375 303.253906 496.234375 303.253906 492.636719 C 303.253906 489.035156 308.65625 489.035156 308.65625 492.636719 "/>
<path fill="none" stroke-width="0.75" stroke-linecap="round" stroke-linejoin="round" stroke="rgb(0%, 0%, 0%)" stroke-opacity="1" stroke-miterlimit="10" d="M 423.320312 376.511719 C 423.320312 380.113281 417.921875 380.113281 417.921875 376.511719 C 417.921875 372.914062 423.320312 372.914062 423.320312 376.511719 "/>
<path fill="none" stroke-width="0.75" stroke-linecap="round" stroke-linejoin="round" stroke="rgb(0%, 0%, 0%)" stroke-opacity="1" stroke-miterlimit="10" d="M 227.433594 450.789062 C 227.433594 454.390625 222.035156 454.390625 222.035156 450.789062 C 222.035156 447.191406 227.433594 447.191406 227.433594 450.789062 "/>
<path fill="none" stroke-width="0.75" stroke-linecap="round" stroke-linejoin="round" stroke="rgb(0%, 0%, 0%)" stroke-opacity="1" stroke-miterlimit="10" d="M 256.101562 535.179688 C 256.101562 538.78125 250.699219 538.78125 250.699219 535.179688 C 250.699219 531.578125 256.101562 531.578125 256.101562 535.179688 "/>
<path fill="none" stroke-width="0.75" stroke-linecap="round" stroke-linejoin="round" stroke="rgb(0%, 0%, 0%)" stroke-opacity="1" stroke-miterlimit="10" d="M 423.320312 390.460938 C 423.320312 394.0625 417.921875 394.0625 417.921875 390.460938 C 417.921875 386.863281 423.320312 386.863281 423.320312 390.460938 "/>
<path fill="none" stroke-width="0.75" stroke-linecap="round" stroke-linejoin="round" stroke="rgb(0%, 0%, 0%)" stroke-opacity="1" stroke-miterlimit="10" d="M 404.210938 297.003906 C 404.210938 300.605469 398.8125 300.605469 398.8125 297.003906 C 398.8125 293.40625 404.210938 293.40625 404.210938 297.003906 "/>
<path fill="none" stroke-width="0.75" stroke-linecap="round" stroke-linejoin="round" stroke="rgb(0%, 0%, 0%)" stroke-opacity="1" stroke-miterlimit="10" d="M 490.210938 244.699219 C 490.210938 248.296875 484.8125 248.296875 484.8125 244.699219 C 484.8125 241.097656 490.210938 241.097656 490.210938 244.699219 "/>
<path fill="none" stroke-width="0.75" stroke-linecap="round" stroke-linejoin="round" stroke="rgb(0%, 0%, 0%)" stroke-opacity="1" stroke-miterlimit="10" d="M 232.210938 492.289062 C 232.210938 495.886719 226.8125 495.886719 226.8125 492.289062 C 226.8125 488.6875 232.210938 488.6875 232.210938 492.289062 "/>
<path fill="none" stroke-width="0.75" stroke-linecap="round" stroke-linejoin="round" stroke="rgb(0%, 0%, 0%)" stroke-opacity="1" stroke-miterlimit="10" d="M 442.433594 369.539062 C 442.433594 373.136719 437.035156 373.136719 437.035156 369.539062 C 437.035156 365.9375 442.433594 365.9375 442.433594 369.539062 "/>
<path fill="none" stroke-width="0.75" stroke-linecap="round" stroke-linejoin="round" stroke="rgb(0%, 0%, 0%)" stroke-opacity="1" stroke-miterlimit="10" d="M 289.542969 484.617188 C 289.542969 488.214844 284.144531 488.214844 284.144531 484.617188 C 284.144531 481.015625 289.542969 481.015625 289.542969 484.617188 "/>
<path fill="none" stroke-width="0.75" stroke-linecap="round" stroke-linejoin="round" stroke="rgb(0%, 0%, 0%)" stroke-opacity="1" stroke-miterlimit="10" d="M 160.542969 511.464844 C 160.542969 515.066406 155.144531 515.066406 155.144531 511.464844 C 155.144531 507.867188 160.542969 507.867188 160.542969 511.464844 "/>
<path fill="none" stroke-width="0.75" stroke-linecap="round" stroke-linejoin="round" stroke="rgb(0%, 0%, 0%)" stroke-opacity="1" stroke-miterlimit="10" d="M 184.433594 574.933594 C 184.433594 578.535156 179.035156 578.535156 179.035156 574.933594 C 179.035156 571.332031 184.433594 571.332031 184.433594 574.933594 "/>
<path fill="none" stroke-width="0.75" stroke-linecap="round" stroke-linejoin="round" stroke="rgb(0%, 0%, 0%)" stroke-opacity="1" stroke-miterlimit="10" d="M 413.765625 356.289062 C 413.765625 359.886719 408.367188 359.886719 408.367188 356.289062 C 408.367188 352.6875 413.765625 352.6875 413.765625 356.289062 "/>
<path fill="none" stroke-width="0.75" stroke-linecap="round" stroke-linejoin="round" stroke="rgb(0%, 0%, 0%)" stroke-opacity="1" stroke-miterlimit="10" d="M 416.632812 401.480469 C 416.632812 405.082031 411.234375 405.082031 411.234375 401.480469 C 411.234375 397.882812 416.632812 397.882812 416.632812 401.480469 "/>
<path fill="none" stroke-width="0.75" stroke-linecap="round" stroke-linejoin="round" stroke="rgb(0%, 0%, 0%)" stroke-opacity="1" stroke-miterlimit="10" d="M 176.3125 552.300781 C 176.3125 555.902344 170.910156 555.902344 170.910156 552.300781 C 170.910156 548.703125 176.3125 548.703125 176.3125 552.300781 "/>
<path fill="none" stroke-width="0.75" stroke-linecap="round" stroke-linejoin="round" stroke="rgb(0%, 0%, 0%)" stroke-opacity="1" stroke-miterlimit="10" d="M 452.945312 418.882812 C 452.945312 422.480469 447.542969 422.480469 447.542969 418.882812 C 447.542969 415.28125 452.945312 415.28125 452.945312 418.882812 "/>
<path fill="none" stroke-width="0.75" stroke-linecap="round" stroke-linejoin="round" stroke="rgb(0%, 0%, 0%)" stroke-opacity="1" stroke-miterlimit="10" d="M 300.054688 476.386719 C 300.054688 479.984375 294.65625 479.984375 294.65625 476.386719 C 294.65625 472.785156 300.054688 472.785156 300.054688 476.386719 "/>
<path fill="none" stroke-width="0.75" stroke-linecap="round" stroke-linejoin="round" stroke="rgb(0%, 0%, 0%)" stroke-opacity="1" stroke-miterlimit="10" d="M 266.132812 507.628906 C 266.132812 511.230469 260.734375 511.230469 260.734375 507.628906 C 260.734375 504.03125 266.132812 504.03125 266.132812 507.628906 "/>
<path fill="none" stroke-width="0.75" stroke-linecap="round" stroke-linejoin="round" stroke="rgb(0%, 0%, 0%)" stroke-opacity="1" stroke-miterlimit="10" d="M 181.089844 546.929688 C 181.089844 550.53125 175.6875 550.53125 175.6875 546.929688 C 175.6875 543.332031 181.089844 543.332031 181.089844 546.929688 "/>
<path fill="none" stroke-width="0.75" stroke-linecap="round" stroke-linejoin="round" stroke="rgb(0%, 0%, 0%)" stroke-opacity="1" stroke-miterlimit="10" d="M 187.777344 554.847656 C 187.777344 558.445312 182.378906 558.445312 182.378906 554.847656 C 182.378906 551.246094 187.777344 551.246094 187.777344 554.847656 "/>
<path fill="none" stroke-width="0.75" stroke-linecap="round" stroke-linejoin="round" stroke="rgb(0%, 0%, 0%)" stroke-opacity="1" stroke-miterlimit="10" d="M 104.167969 605.339844 C 104.167969 608.941406 98.765625 608.941406 98.765625 605.339844 C 98.765625 601.742188 104.167969 601.742188 104.167969 605.339844 "/>
<path fill="none" stroke-width="0.75" stroke-linecap="round" stroke-linejoin="round" stroke="rgb(0%, 0%, 0%)" stroke-opacity="1" stroke-miterlimit="10" d="M 114.199219 601.402344 C 114.199219 605 108.800781 605 108.800781 601.402344 C 108.800781 597.800781 114.199219 597.800781 114.199219 601.402344 "/>
<path fill="none" stroke-width="0.75" stroke-linecap="round" stroke-linejoin="round" stroke="rgb(0%, 0%, 0%)" stroke-opacity="1" stroke-miterlimit="10" d="M 165.800781 581.28125 C 165.800781 584.878906 160.398438 584.878906 160.398438 581.28125 C 160.398438 577.679688 165.800781 577.679688 165.800781 581.28125 "/>
<path fill="none" stroke-width="0.75" stroke-linecap="round" stroke-linejoin="round" stroke="rgb(0%, 0%, 0%)" stroke-opacity="1" stroke-miterlimit="10" d="M 215.488281 538.144531 C 215.488281 541.742188 210.089844 541.742188 210.089844 538.144531 C 210.089844 534.542969 215.488281 534.542969 215.488281 538.144531 "/>
<path fill="none" stroke-width="0.75" stroke-linecap="round" stroke-linejoin="round" stroke="rgb(0%, 0%, 0%)" stroke-opacity="1" stroke-miterlimit="10" d="M 272.34375 502.609375 C 272.34375 506.210938 266.945312 506.210938 266.945312 502.609375 C 266.945312 499.007812 272.34375 499.007812 272.34375 502.609375 "/>
<path fill="none" stroke-width="0.75" stroke-linecap="round" stroke-linejoin="round" stroke="rgb(0%, 0%, 0%)" stroke-opacity="1" stroke-miterlimit="10" d="M 285.722656 491.695312 C 285.722656 495.292969 280.320312 495.292969 280.320312 491.695312 C 280.320312 488.09375 285.722656 488.09375 285.722656 491.695312 "/>
<path fill="none" stroke-width="0.75" stroke-linecap="round" stroke-linejoin="round" stroke="rgb(0%, 0%, 0%)" stroke-opacity="1" stroke-miterlimit="10" d="M 291.457031 345.859375 C 291.457031 349.460938 286.054688 349.460938 286.054688 345.859375 C 286.054688 342.261719 291.457031 342.261719 291.457031 345.859375 "/>
<path fill="none" stroke-width="0.75" stroke-linecap="round" stroke-linejoin="round" stroke="rgb(0%, 0%, 0%)" stroke-opacity="1" stroke-miterlimit="10" d="M 136.65625 600.984375 C 136.65625 604.582031 131.253906 604.582031 131.253906 600.984375 C 131.253906 597.382812 136.65625 597.382812 136.65625 600.984375 "/>
<path fill="none" stroke-width="0.75" stroke-linecap="round" stroke-linejoin="round" stroke="rgb(0%, 0%, 0%)" stroke-opacity="1" stroke-miterlimit="10" d="M 201.632812 544.492188 C 201.632812 548.089844 196.234375 548.089844 196.234375 544.492188 C 196.234375 540.890625 201.632812 540.890625 201.632812 544.492188 "/>
<path fill="none" stroke-width="0.75" stroke-linecap="round" stroke-linejoin="round" stroke="rgb(0%, 0%, 0%)" stroke-opacity="1" stroke-miterlimit="10" d="M 317.015625 485.066406 C 317.015625 488.664062 311.617188 488.664062 311.617188 485.066406 C 311.617188 481.464844 317.015625 481.464844 317.015625 485.066406 "/>
<path fill="none" stroke-width="0.75" stroke-linecap="round" stroke-linejoin="round" stroke="rgb(0%, 0%, 0%)" stroke-opacity="1" stroke-miterlimit="10" d="M 213.851562 556.976562 C 213.851562 560.578125 208.449219 560.578125 208.449219 556.976562 C 208.449219 553.375 213.851562 553.375 213.851562 556.976562 "/>
<path fill="none" stroke-width="0.75" stroke-linecap="round" stroke-linejoin="round" stroke="rgb(0%, 0%, 0%)" stroke-opacity="1" stroke-miterlimit="10" d="M 232.507812 528.558594 C 232.507812 532.15625 227.105469 532.15625 227.105469 528.558594 C 227.105469 524.957031 232.507812 524.957031 232.507812 528.558594 "/>
<path fill="none" stroke-width="0.75" stroke-linecap="round" stroke-linejoin="round" stroke="rgb(0%, 0%, 0%)" stroke-opacity="1" stroke-miterlimit="10" d="M 436.414062 388.074219 C 436.414062 391.675781 431.011719 391.675781 431.011719 388.074219 C 431.011719 384.476562 436.414062 384.476562 436.414062 388.074219 "/>
<path fill="none" stroke-width="0.75" stroke-linecap="round" stroke-linejoin="round" stroke="rgb(0%, 0%, 0%)" stroke-opacity="1" stroke-miterlimit="10" d="M 288.761719 540.808594 C 288.761719 544.40625 283.359375 544.40625 283.359375 540.808594 C 283.359375 537.207031 288.761719 537.207031 288.761719 540.808594 "/>
<path fill="none" stroke-width="0.75" stroke-linecap="round" stroke-linejoin="round" stroke="rgb(0%, 0%, 0%)" stroke-opacity="1" stroke-miterlimit="10" d="M 477.957031 343.507812 C 477.957031 347.105469 472.554688 347.105469 472.554688 343.507812 C 472.554688 339.90625 477.957031 339.90625 477.957031 343.507812 "/>
<path fill="none" stroke-width="0.75" stroke-linecap="round" stroke-linejoin="round" stroke="rgb(0%, 0%, 0%)" stroke-opacity="1" stroke-miterlimit="10" d="M 278.507812 546.082031 C 278.507812 549.683594 273.109375 549.683594 273.109375 546.082031 C 273.109375 542.480469 278.507812 542.480469 278.507812 546.082031 "/>
<path fill="none" stroke-width="0.75" stroke-linecap="round" stroke-linejoin="round" stroke="rgb(0%, 0%, 0%)" stroke-opacity="1" stroke-miterlimit="10" d="M 465.714844 351.636719 C 465.714844 355.234375 460.316406 355.234375 460.316406 351.636719 C 460.316406 348.035156 465.714844 348.035156 465.714844 351.636719 "/>
<path fill="none" stroke-width="0.75" stroke-linecap="round" stroke-linejoin="round" stroke="rgb(0%, 0%, 0%)" stroke-opacity="1" stroke-miterlimit="10" d="M 271.9375 508.992188 C 271.9375 512.59375 266.539062 512.59375 266.539062 508.992188 C 266.539062 505.394531 271.9375 505.394531 271.9375 508.992188 "/>
<path fill="none" stroke-width="0.75" stroke-linecap="round" stroke-linejoin="round" stroke="rgb(0%, 0%, 0%)" stroke-opacity="1" stroke-miterlimit="10" d="M 412.566406 430.136719 C 412.566406 433.738281 407.167969 433.738281 407.167969 430.136719 C 407.167969 426.539062 412.566406 426.539062 412.566406 430.136719 "/>
<path fill="none" stroke-width="0.75" stroke-linecap="round" stroke-linejoin="round" stroke="rgb(0%, 0%, 0%)" stroke-opacity="1" stroke-miterlimit="10" d="M 130.917969 600.328125 C 130.917969 603.925781 125.515625 603.925781 125.515625 600.328125 C 125.515625 596.726562 130.917969 596.726562 130.917969 600.328125 "/>
<path fill="none" stroke-width="0.75" stroke-linecap="round" stroke-linejoin="round" stroke="rgb(0%, 0%, 0%)" stroke-opacity="1" stroke-miterlimit="10" d="M 296.949219 517.230469 C 296.949219 520.832031 291.550781 520.832031 291.550781 517.230469 C 291.550781 513.632812 296.949219 513.632812 296.949219 517.230469 "/>
<path fill="none" stroke-width="0.75" stroke-linecap="round" stroke-linejoin="round" stroke="rgb(0%, 0%, 0%)" stroke-opacity="1" stroke-miterlimit="10" d="M 432.910156 376.847656 C 432.910156 380.449219 427.511719 380.449219 427.511719 376.847656 C 427.511719 373.246094 432.910156 373.246094 432.910156 376.847656 "/>
<path fill="none" stroke-width="0.75" stroke-linecap="round" stroke-linejoin="round" stroke="rgb(0%, 0%, 0%)" stroke-opacity="1" stroke-miterlimit="10" d="M 172.464844 591.949219 C 172.464844 595.546875 167.066406 595.546875 167.066406 591.949219 C 167.066406 588.347656 172.464844 588.347656 172.464844 591.949219 "/>
<path fill="none" stroke-width="0.75" stroke-linecap="round" stroke-linejoin="round" stroke="rgb(0%, 0%, 0%)" stroke-opacity="1" stroke-miterlimit="10" d="M 344.140625 488.269531 C 344.140625 491.867188 338.738281 491.867188 338.738281 488.269531 C 338.738281 484.667969 344.140625 484.667969 344.140625 488.269531 "/>
<path fill="none" stroke-width="0.75" stroke-linecap="round" stroke-linejoin="round" stroke="rgb(0%, 0%, 0%)" stroke-opacity="1" stroke-miterlimit="10" d="M 104.507812 610.238281 C 104.507812 613.835938 99.105469 613.835938 99.105469 610.238281 C 99.105469 606.636719 104.507812 606.636719 104.507812 610.238281 "/>
<path fill="none" stroke-width="0.75" stroke-linecap="round" stroke-linejoin="round" stroke="rgb(0%, 0%, 0%)" stroke-opacity="1" stroke-miterlimit="10" d="M 203.945312 530.921875 C 203.945312 534.523438 198.546875 534.523438 198.546875 530.921875 C 198.546875 527.324219 203.945312 527.324219 203.945312 530.921875 "/>
<path fill="none" stroke-width="0.75" stroke-linecap="round" stroke-linejoin="round" stroke="rgb(0%, 0%, 0%)" stroke-opacity="1" stroke-miterlimit="10" d="M 548.6875 322.523438 C 548.6875 326.125 543.285156 326.125 543.285156 322.523438 C 543.285156 318.925781 548.6875 318.925781 548.6875 322.523438 "/>
<path fill="none" stroke-width="0.75" stroke-linecap="round" stroke-linejoin="round" stroke="rgb(0%, 0%, 0%)" stroke-opacity="1" stroke-miterlimit="10" d="M 267 536.0625 C 267 539.660156 261.597656 539.660156 261.597656 536.0625 C 261.597656 532.460938 267 532.460938 267 536.0625 "/>
<path fill="none" stroke-width="0.75" stroke-linecap="round" stroke-linejoin="round" stroke="rgb(0%, 0%, 0%)" stroke-opacity="1" stroke-miterlimit="10" d="M 247.550781 552.890625 C 247.550781 556.492188 242.152344 556.492188 242.152344 552.890625 C 242.152344 549.292969 247.550781 549.292969 247.550781 552.890625 "/>
<path fill="none" stroke-width="0.75" stroke-linecap="round" stroke-linejoin="round" stroke="rgb(0%, 0%, 0%)" stroke-opacity="1" stroke-miterlimit="10" d="M 194.355469 564.460938 C 194.355469 568.0625 188.957031 568.0625 188.957031 564.460938 C 188.957031 560.859375 194.355469 560.859375 194.355469 564.460938 "/>
<path fill="none" stroke-width="0.75" stroke-linecap="round" stroke-linejoin="round" stroke="rgb(0%, 0%, 0%)" stroke-opacity="1" stroke-miterlimit="10" d="M 256.261719 538.214844 C 256.261719 541.8125 250.863281 541.8125 250.863281 538.214844 C 250.863281 534.613281 256.261719 534.613281 256.261719 538.214844 "/>
<path fill="none" stroke-width="0.75" stroke-linecap="round" stroke-linejoin="round" stroke="rgb(0%, 0%, 0%)" stroke-opacity="1" stroke-miterlimit="10" d="M 337.546875 443.042969 C 337.546875 446.644531 332.148438 446.644531 332.148438 443.042969 C 332.148438 439.445312 337.546875 439.445312 337.546875 443.042969 "/>
<path fill="none" stroke-width="0.75" stroke-linecap="round" stroke-linejoin="round" stroke="rgb(0%, 0%, 0%)" stroke-opacity="1" stroke-miterlimit="10" d="M 418.164062 289.761719 C 418.164062 293.363281 412.761719 293.363281 412.761719 289.761719 C 412.761719 286.164062 418.164062 286.164062 418.164062 289.761719 "/>
<path fill="none" stroke-width="0.75" stroke-linecap="round" stroke-linejoin="round" stroke="rgb(0%, 0%, 0%)" stroke-opacity="1" stroke-miterlimit="10" d="M 309.234375 483.160156 C 309.234375 486.761719 303.832031 486.761719 303.832031 483.160156 C 303.832031 479.558594 309.234375 479.558594 309.234375 483.160156 "/>
<path fill="none" stroke-width="0.75" stroke-linecap="round" stroke-linejoin="round" stroke="rgb(0%, 0%, 0%)" stroke-opacity="1" stroke-miterlimit="10" d="M 167.886719 563.601562 C 167.886719 567.203125 162.488281 567.203125 162.488281 563.601562 C 162.488281 560.003906 167.886719 560.003906 167.886719 563.601562 "/>
<path fill="none" stroke-width="0.75" stroke-linecap="round" stroke-linejoin="round" stroke="rgb(0%, 0%, 0%)" stroke-opacity="1" stroke-miterlimit="10" d="M 149.117188 583.179688 C 149.117188 586.777344 143.714844 586.777344 143.714844 583.179688 C 143.714844 579.578125 149.117188 579.578125 149.117188 583.179688 "/>
<path fill="none" stroke-width="0.75" stroke-linecap="round" stroke-linejoin="round" stroke="rgb(0%, 0%, 0%)" stroke-opacity="1" stroke-miterlimit="10" d="M 178.355469 569.292969 C 178.355469 572.894531 172.957031 572.894531 172.957031 569.292969 C 172.957031 565.691406 178.355469 565.691406 178.355469 569.292969 "/>
<path fill="none" stroke-width="0.75" stroke-linecap="round" stroke-linejoin="round" stroke="rgb(0%, 0%, 0%)" stroke-opacity="1" stroke-miterlimit="10" d="M 182.84375 557.410156 C 182.84375 561.011719 177.441406 561.011719 177.441406 557.410156 C 177.441406 553.8125 182.84375 553.8125 182.84375 557.410156 "/>
<path fill="none" stroke-width="0.75" stroke-linecap="round" stroke-linejoin="round" stroke="rgb(0%, 0%, 0%)" stroke-opacity="1" stroke-miterlimit="10" d="M 200.84375 646.558594 L 917.511719 646.558594 "/>
<path fill="none" stroke-width="0.75" stroke-linecap="round" stroke-linejoin="round" stroke="rgb(0%, 0%, 0%)" stroke-opacity="1" stroke-miterlimit="10" d="M 200.84375 646.558594 L 200.84375 653.761719 "/>
<path fill="none" stroke-width="0.75" stroke-linecap="round" stroke-linejoin="round" stroke="rgb(0%, 0%, 0%)" stroke-opacity="1" stroke-miterlimit="10" d="M 439.734375 646.558594 L 439.734375 653.761719 "/>
<path fill="none" stroke-width="0.75" stroke-linecap="round" stroke-linejoin="round" stroke="rgb(0%, 0%, 0%)" stroke-opacity="1" stroke-miterlimit="10" d="M 678.621094 646.558594 L 678.621094 653.761719 "/>
<path fill="none" stroke-width="0.75" stroke-linecap="round" stroke-linejoin="round" stroke="rgb(0%, 0%, 0%)" stroke-opacity="1" stroke-miterlimit="10" d="M 917.511719 646.558594 L 917.511719 653.761719 "/>
<g fill="rgb(0%, 0%, 0%)" fill-opacity="1">
<use xlink:href="#glyph-0-0" x="193.84375" y="672.34375"/>
<use xlink:href="#glyph-0-1" x="200.84375" y="672.34375"/>
</g>
<g fill="rgb(0%, 0%, 0%)" fill-opacity="1">
<use xlink:href="#glyph-0-2" x="429.234375" y="672.34375"/>
<use xlink:href="#glyph-0-1" x="436.234375" y="672.34375"/>
<use xlink:href="#glyph-0-1" x="443.234375" y="672.34375"/>
</g>
<g fill="rgb(0%, 0%, 0%)" fill-opacity="1">
<use xlink:href="#glyph-0-2" x="668.121094" y="672.34375"/>
<use xlink:href="#glyph-0-0" x="675.121094" y="672.34375"/>
<use xlink:href="#glyph-0-1" x="682.121094" y="672.34375"/>
</g>
<g fill="rgb(0%, 0%, 0%)" fill-opacity="1">
<use xlink:href="#glyph-0-3" x="907.011719" y="672.34375"/>
<use xlink:href="#glyph-0-1" x="914.011719" y="672.34375"/>
<use xlink:href="#glyph-0-1" x="921.011719" y="672.34375"/>
</g>
<path fill="none" stroke-width="0.75" stroke-linecap="round" stroke-linejoin="round" stroke="rgb(0%, 0%, 0%)" stroke-opacity="1" stroke-miterlimit="10" d="M 59.039062 506.234375 L 59.039062 157.519531 "/>
<path fill="none" stroke-width="0.75" stroke-linecap="round" stroke-linejoin="round" stroke="rgb(0%, 0%, 0%)" stroke-opacity="1" stroke-miterlimit="10" d="M 59.039062 506.234375 L 51.839844 506.234375 "/>
<path fill="none" stroke-width="0.75" stroke-linecap="round" stroke-linejoin="round" stroke="rgb(0%, 0%, 0%)" stroke-opacity="1" stroke-miterlimit="10" d="M 59.039062 331.875 L 51.839844 331.875 "/>
<path fill="none" stroke-width="0.75" stroke-linecap="round" stroke-linejoin="round" stroke="rgb(0%, 0%, 0%)" stroke-opacity="1" stroke-miterlimit="10" d="M 59.039062 157.519531 L 51.839844 157.519531 "/>
<g fill="rgb(0%, 0%, 0%)" fill-opacity="1">
<use xlink:href="#glyph-1-0" x="41.625" y="516.734375"/>
<use xlink:href="#glyph-1-1" x="41.625" y="509.734375"/>
<use xlink:href="#glyph-1-1" x="41.625" y="502.734375"/>
</g>
<g fill="rgb(0%, 0%, 0%)" fill-opacity="1">
<use xlink:href="#glyph-1-2" x="41.625" y="345.875"/>
<use xlink:href="#glyph-1-1" x="41.625" y="338.875"/>
<use xlink:href="#glyph-1-1" x="41.625" y="331.875"/>
<use xlink:href="#glyph-1-1" x="41.625" y="324.875"/>
</g>
<g fill="rgb(0%, 0%, 0%)" fill-opacity="1">
<use xlink:href="#glyph-1-2" x="41.625" y="171.519531"/>
<use xlink:href="#glyph-1-0" x="41.625" y="164.519531"/>
<use xlink:href="#glyph-1-1" x="41.625" y="157.519531"/>
<use xlink:href="#glyph-1-1" x="41.625" y="150.519531"/>
</g>
<path fill="none" stroke-width="0.75" stroke-linecap="round" stroke-linejoin="round" stroke="rgb(0%, 0%, 0%)" stroke-opacity="1" stroke-miterlimit="10" d="M 59.039062 646.558594 L 1049.761719 646.558594 L 1049.761719 59.039062 L 59.039062 59.039062 Z M 59.039062 646.558594 "/>
<g fill="rgb(0%, 0%, 0%)" fill-opacity="1">
<use xlink:href="#glyph-0-4" x="540.398438" y="701.144531"/>
<use xlink:href="#glyph-0-5" x="547.398438" y="701.144531"/>
<use xlink:href="#glyph-0-6" x="551.398438" y="701.144531"/>
<use xlink:href="#glyph-0-7" x="554.398438" y="701.144531"/>
<use xlink:href="#glyph-0-8" x="561.398438" y="701.144531"/>
</g>
<g fill="rgb(0%, 0%, 0%)" fill-opacity="1">
<use xlink:href="#glyph-1-3" x="12.824219" y="364.800781"/>
<use xlink:href="#glyph-1-4" x="12.824219" y="361.800781"/>
<use xlink:href="#glyph-1-3" x="12.824219" y="357.800781"/>
<use xlink:href="#glyph-1-5" x="12.824219" y="354.800781"/>
<use xlink:href="#glyph-1-6" x="12.824219" y="347.800781"/>
</g>
</svg>
