<?xml version="1.0" encoding="UTF-8"?>
<svg xmlns="http://www.w3.org/2000/svg" xmlns:xlink="http://www.w3.org/1999/xlink" width="1080pt" height="720pt" viewBox="0 0 1080 720">
<defs>
<g>
<g id="glyph-0-0">
<path d="M 6.171875 -3.203125 C 6.171875 -0.984375 5.394531 0.125 3.84375 0.125 C 2.863281 0.125 2.207031 -0.242188 1.875 -0.984375 L 1.84375 -0.984375 C 1.851562 -0.953125 1.859375 -0.617188 1.859375 0.015625 L 1.859375 2.484375 L 0.8125 2.484375 L 0.8125 -5.046875 C 0.8125 -5.703125 0.800781 -6.132812 0.78125 -6.34375 L 1.796875 -6.34375 C 1.796875 -6.320312 1.800781 -6.265625 1.8125 -6.171875 C 1.820312 -6.078125 1.832031 -5.929688 1.84375 -5.734375 C 1.851562 -5.535156 1.859375 -5.398438 1.859375 -5.328125 L 1.875 -5.328125 C 2.0625 -5.710938 2.304688 -5.992188 2.609375 -6.171875 C 2.921875 -6.359375 3.332031 -6.453125 3.84375 -6.453125 C 4.625 -6.453125 5.207031 -6.1875 5.59375 -5.65625 C 5.976562 -5.132812 6.171875 -4.316406 6.171875 -3.203125 Z M 5.0625 -3.171875 C 5.0625 -4.054688 4.941406 -4.6875 4.703125 -5.0625 C 4.460938 -5.445312 4.082031 -5.640625 3.5625 -5.640625 C 3.144531 -5.640625 2.816406 -5.550781 2.578125 -5.375 C 2.347656 -5.195312 2.171875 -4.921875 2.046875 -4.546875 C 1.921875 -4.171875 1.859375 -3.6875 1.859375 -3.09375 C 1.859375 -2.257812 1.988281 -1.644531 2.25 -1.25 C 2.519531 -0.851562 2.957031 -0.65625 3.5625 -0.65625 C 4.082031 -0.65625 4.460938 -0.847656 4.703125 -1.234375 C 4.941406 -1.617188 5.0625 -2.265625 5.0625 -3.171875 Z M 5.0625 -3.171875 "/>
</g>
<g id="glyph-0-1">
<path d="M -0.1875 2.390625 L -0.1875 1.625 L 6.8125 1.625 L 6.8125 2.390625 Z M -0.1875 2.390625 "/>
</g>
<g id="glyph-0-2">
<path d="M 3.25 -0.046875 C 2.894531 0.046875 2.539062 0.09375 2.1875 0.09375 C 1.34375 0.09375 0.921875 -0.382812 0.921875 -1.34375 L 0.921875 -5.578125 L 0.1875 -5.578125 L 0.1875 -6.34375 L 0.953125 -6.34375 L 1.265625 -7.765625 L 1.96875 -7.765625 L 1.96875 -6.34375 L 3.140625 -6.34375 L 3.140625 -5.578125 L 1.96875 -5.578125 L 1.96875 -1.578125 C 1.96875 -1.265625 2.015625 -1.046875 2.109375 -0.921875 C 2.210938 -0.804688 2.390625 -0.75 2.640625 -0.75 C 2.773438 -0.75 2.976562 -0.773438 3.25 -0.828125 Z M 3.25 -0.046875 "/>
</g>
<g id="glyph-0-3">
<path d="M 2.421875 0.125 C 1.785156 0.125 1.304688 -0.0390625 0.984375 -0.375 C 0.671875 -0.71875 0.515625 -1.179688 0.515625 -1.765625 C 0.515625 -2.421875 0.726562 -2.925781 1.15625 -3.28125 C 1.59375 -3.632812 2.289062 -3.820312 3.25 -3.84375 L 4.671875 -3.875 L 4.671875 -4.21875 C 4.671875 -4.726562 4.5625 -5.09375 4.34375 -5.3125 C 4.125 -5.539062 3.78125 -5.65625 3.3125 -5.65625 C 2.84375 -5.65625 2.5 -5.570312 2.28125 -5.40625 C 2.0625 -5.25 1.929688 -4.992188 1.890625 -4.640625 L 0.796875 -4.75 C 0.972656 -5.882812 1.816406 -6.453125 3.328125 -6.453125 C 4.128906 -6.453125 4.726562 -6.269531 5.125 -5.90625 C 5.53125 -5.539062 5.734375 -5.015625 5.734375 -4.328125 L 5.734375 -1.59375 C 5.734375 -1.28125 5.773438 -1.046875 5.859375 -0.890625 C 5.941406 -0.734375 6.097656 -0.65625 6.328125 -0.65625 C 6.429688 -0.65625 6.546875 -0.664062 6.671875 -0.6875 L 6.671875 -0.03125 C 6.410156 0.03125 6.140625 0.0625 5.859375 0.0625 C 5.472656 0.0625 5.1875 -0.0390625 5 -0.25 C 4.820312 -0.457031 4.722656 -0.78125 4.703125 -1.21875 L 4.671875 -1.21875 C 4.398438 -0.726562 4.082031 -0.378906 3.71875 -0.171875 C 3.363281 0.0234375 2.929688 0.125 2.421875 0.125 Z M 2.671875 -0.671875 C 3.054688 -0.671875 3.398438 -0.757812 3.703125 -0.9375 C 4.003906 -1.113281 4.238281 -1.351562 4.40625 -1.65625 C 4.582031 -1.96875 4.671875 -2.285156 4.671875 -2.609375 L 4.671875 -3.125 L 3.515625 -3.109375 C 3.015625 -3.097656 2.632812 -3.046875 2.375 -2.953125 C 2.125 -2.859375 1.929688 -2.710938 1.796875 -2.515625 C 1.660156 -2.328125 1.59375 -2.070312 1.59375 -1.75 C 1.59375 -1.40625 1.6875 -1.140625 1.875 -0.953125 C 2.0625 -0.765625 2.328125 -0.671875 2.671875 -0.671875 Z M 2.671875 -0.671875 "/>
</g>
<g id="glyph-0-4">
<path d="M 1.84375 -6.34375 L 1.84375 -2.328125 C 1.84375 -1.898438 1.882812 -1.570312 1.96875 -1.34375 C 2.050781 -1.113281 2.179688 -0.945312 2.359375 -0.84375 C 2.535156 -0.75 2.796875 -0.703125 3.140625 -0.703125 C 3.648438 -0.703125 4.050781 -0.875 4.34375 -1.21875 C 4.632812 -1.5625 4.78125 -2.046875 4.78125 -2.671875 L 4.78125 -6.34375 L 5.84375 -6.34375 L 5.84375 -1.359375 C 5.84375 -0.617188 5.851562 -0.164062 5.875 0 L 4.875 0 C 4.875 -0.0195312 4.867188 -0.0703125 4.859375 -0.15625 C 4.859375 -0.238281 4.851562 -0.335938 4.84375 -0.453125 C 4.84375 -0.566406 4.835938 -0.773438 4.828125 -1.078125 L 4.8125 -1.078125 C 4.570312 -0.640625 4.289062 -0.328125 3.96875 -0.140625 C 3.65625 0.0351562 3.265625 0.125 2.796875 0.125 C 2.097656 0.125 1.585938 -0.046875 1.265625 -0.390625 C 0.941406 -0.742188 0.78125 -1.316406 0.78125 -2.109375 L 0.78125 -6.34375 Z M 1.84375 -6.34375 "/>
</g>
<g id="glyph-0-5">
<path d="M 3.21875 2.484375 C 2.519531 2.484375 1.960938 2.347656 1.546875 2.078125 C 1.140625 1.804688 0.878906 1.421875 0.765625 0.921875 L 1.828125 0.78125 C 1.898438 1.070312 2.054688 1.296875 2.296875 1.453125 C 2.535156 1.609375 2.847656 1.6875 3.234375 1.6875 C 4.285156 1.6875 4.8125 1.070312 4.8125 -0.15625 L 4.8125 -1.171875 C 4.601562 -0.765625 4.328125 -0.457031 3.984375 -0.25 C 3.640625 -0.0507812 3.234375 0.046875 2.765625 0.046875 C 1.984375 0.046875 1.410156 -0.207031 1.046875 -0.71875 C 0.679688 -1.238281 0.5 -2.050781 0.5 -3.15625 C 0.5 -4.28125 0.695312 -5.109375 1.09375 -5.640625 C 1.488281 -6.171875 2.085938 -6.4375 2.890625 -6.4375 C 3.335938 -6.4375 3.722656 -6.332031 4.046875 -6.125 C 4.378906 -5.925781 4.632812 -5.632812 4.8125 -5.25 L 4.828125 -5.25 C 4.828125 -5.375 4.832031 -5.578125 4.84375 -5.859375 C 4.863281 -6.148438 4.882812 -6.3125 4.90625 -6.34375 L 5.90625 -6.34375 C 5.875 -6.132812 5.859375 -5.695312 5.859375 -5.03125 L 5.859375 -0.1875 C 5.859375 1.59375 4.976562 2.484375 3.21875 2.484375 Z M 4.8125 -3.171875 C 4.8125 -3.679688 4.738281 -4.125 4.59375 -4.5 C 4.457031 -4.875 4.257812 -5.160156 4 -5.359375 C 3.75 -5.554688 3.460938 -5.65625 3.140625 -5.65625 C 2.597656 -5.65625 2.203125 -5.457031 1.953125 -5.0625 C 1.710938 -4.675781 1.59375 -4.046875 1.59375 -3.171875 C 1.59375 -2.304688 1.707031 -1.679688 1.9375 -1.296875 C 2.164062 -0.921875 2.5625 -0.734375 3.125 -0.734375 C 3.457031 -0.734375 3.75 -0.828125 4 -1.015625 C 4.257812 -1.210938 4.457031 -1.492188 4.59375 -1.859375 C 4.738281 -2.234375 4.8125 -2.671875 4.8125 -3.171875 Z M 4.8125 -3.171875 "/>
</g>
<g id="glyph-0-6">
<path d="M 1.625 -2.953125 C 1.625 -2.222656 1.769531 -1.660156 2.0625 -1.265625 C 2.363281 -0.867188 2.804688 -0.671875 3.390625 -0.671875 C 3.847656 -0.671875 4.210938 -0.757812 4.484375 -0.9375 C 4.765625 -1.125 4.953125 -1.359375 5.046875 -1.640625 L 5.96875 -1.390625 C 5.59375 -0.378906 4.734375 0.125 3.390625 0.125 C 2.453125 0.125 1.738281 -0.15625 1.25 -0.71875 C 0.757812 -1.28125 0.515625 -2.113281 0.515625 -3.21875 C 0.515625 -4.257812 0.757812 -5.054688 1.25 -5.609375 C 1.738281 -6.171875 2.4375 -6.453125 3.34375 -6.453125 C 5.207031 -6.453125 6.140625 -5.332031 6.140625 -3.09375 L 6.140625 -2.953125 Z M 5.046875 -3.75 C 4.992188 -4.425781 4.828125 -4.914062 4.546875 -5.21875 C 4.265625 -5.519531 3.859375 -5.671875 3.328125 -5.671875 C 2.816406 -5.671875 2.410156 -5.5 2.109375 -5.15625 C 1.816406 -4.820312 1.65625 -4.351562 1.625 -3.75 Z M 5.046875 -3.75 "/>
</g>
<g id="glyph-0-7">
<path d="M 4.828125 0 L 4.828125 -4.015625 C 4.828125 -4.429688 4.785156 -4.753906 4.703125 -4.984375 C 4.628906 -5.222656 4.5 -5.390625 4.3125 -5.484375 C 4.132812 -5.585938 3.875 -5.640625 3.53125 -5.640625 C 3.019531 -5.640625 2.617188 -5.460938 2.328125 -5.109375 C 2.035156 -4.765625 1.890625 -4.285156 1.890625 -3.671875 L 1.890625 0 L 0.828125 0 L 0.828125 -4.984375 C 0.828125 -5.722656 0.816406 -6.175781 0.796875 -6.34375 L 1.796875 -6.34375 C 1.796875 -6.320312 1.796875 -6.265625 1.796875 -6.171875 C 1.804688 -6.085938 1.8125 -5.988281 1.8125 -5.875 C 1.820312 -5.769531 1.832031 -5.5625 1.84375 -5.25 L 1.859375 -5.25 C 2.097656 -5.6875 2.375 -5.992188 2.6875 -6.171875 C 3.007812 -6.359375 3.410156 -6.453125 3.890625 -6.453125 C 4.578125 -6.453125 5.082031 -6.28125 5.40625 -5.9375 C 5.726562 -5.59375 5.890625 -5.019531 5.890625 -4.21875 L 5.890625 0 Z M 4.828125 0 "/>
</g>
<g id="glyph-0-8">
<path d="M 4.8125 -1.015625 C 4.613281 -0.609375 4.351562 -0.316406 4.03125 -0.140625 C 3.707031 0.0351562 3.3125 0.125 2.84375 0.125 C 2.039062 0.125 1.445312 -0.144531 1.0625 -0.6875 C 0.6875 -1.226562 0.5 -2.046875 0.5 -3.140625 C 0.5 -5.347656 1.28125 -6.453125 2.84375 -6.453125 C 3.320312 -6.453125 3.71875 -6.363281 4.03125 -6.1875 C 4.351562 -6.019531 4.613281 -5.742188 4.8125 -5.359375 L 4.828125 -5.359375 L 4.8125 -6.0625 L 4.8125 -8.703125 L 5.859375 -8.703125 L 5.859375 -1.3125 C 5.859375 -0.644531 5.875 -0.207031 5.90625 0 L 4.890625 0 C 4.878906 -0.0625 4.863281 -0.207031 4.84375 -0.4375 C 4.832031 -0.664062 4.828125 -0.859375 4.828125 -1.015625 Z M 1.609375 -3.171875 C 1.609375 -2.285156 1.722656 -1.648438 1.953125 -1.265625 C 2.191406 -0.890625 2.578125 -0.703125 3.109375 -0.703125 C 3.703125 -0.703125 4.132812 -0.90625 4.40625 -1.3125 C 4.675781 -1.726562 4.8125 -2.375 4.8125 -3.25 C 4.8125 -4.082031 4.675781 -4.691406 4.40625 -5.078125 C 4.132812 -5.472656 3.707031 -5.671875 3.125 -5.671875 C 2.59375 -5.671875 2.207031 -5.472656 1.96875 -5.078125 C 1.726562 -4.691406 1.609375 -4.054688 1.609375 -3.171875 Z M 1.609375 -3.171875 "/>
</g>
<g id="glyph-0-9">
<path d="M 0.828125 0 L 0.828125 -4.859375 C 0.828125 -5.304688 0.816406 -5.800781 0.796875 -6.34375 L 1.796875 -6.34375 C 1.828125 -5.625 1.84375 -5.191406 1.84375 -5.046875 L 1.859375 -5.046875 C 2.023438 -5.585938 2.21875 -5.957031 2.4375 -6.15625 C 2.65625 -6.351562 2.96875 -6.453125 3.375 -6.453125 C 3.507812 -6.453125 3.648438 -6.4375 3.796875 -6.40625 L 3.796875 -5.4375 C 3.660156 -5.46875 3.472656 -5.484375 3.234375 -5.484375 C 2.796875 -5.484375 2.460938 -5.296875 2.234375 -4.921875 C 2.003906 -4.546875 1.890625 -4.007812 1.890625 -3.3125 L 1.890625 0 Z M 0.828125 0 "/>
</g>
<g id="glyph-0-10">
<path d="M 4.5 0 L 4.5 -4.015625 C 4.5 -4.628906 4.414062 -5.050781 4.25 -5.28125 C 4.082031 -5.519531 3.78125 -5.640625 3.34375 -5.640625 C 2.894531 -5.640625 2.535156 -5.46875 2.265625 -5.125 C 2.003906 -4.78125 1.875 -4.296875 1.875 -3.671875 L 1.875 0 L 0.828125 0 L 0.828125 -4.984375 C 0.828125 -5.722656 0.816406 -6.175781 0.796875 -6.34375 L 1.796875 -6.34375 C 1.796875 -6.320312 1.796875 -6.265625 1.796875 -6.171875 C 1.804688 -6.085938 1.8125 -5.988281 1.8125 -5.875 C 1.820312 -5.769531 1.832031 -5.5625 1.84375 -5.25 L 1.859375 -5.25 C 2.085938 -5.707031 2.347656 -6.019531 2.640625 -6.1875 C 2.929688 -6.363281 3.285156 -6.453125 3.703125 -6.453125 C 4.191406 -6.453125 4.570312 -6.359375 4.84375 -6.171875 C 5.125 -5.984375 5.320312 -5.675781 5.4375 -5.25 L 5.453125 -5.25 C 5.671875 -5.675781 5.929688 -5.984375 6.234375 -6.171875 C 6.546875 -6.359375 6.925781 -6.453125 7.375 -6.453125 C 8.007812 -6.453125 8.472656 -6.28125 8.765625 -5.9375 C 9.054688 -5.59375 9.203125 -5.019531 9.203125 -4.21875 L 9.203125 0 L 8.15625 0 L 8.15625 -4.015625 C 8.15625 -4.628906 8.070312 -5.050781 7.90625 -5.28125 C 7.738281 -5.519531 7.4375 -5.640625 7 -5.640625 C 6.539062 -5.640625 6.179688 -5.46875 5.921875 -5.125 C 5.671875 -4.789062 5.546875 -4.304688 5.546875 -3.671875 L 5.546875 0 Z M 4.5 0 "/>
</g>
<g id="glyph-0-11">
<path d="M 6.171875 -3.203125 C 6.171875 -0.984375 5.394531 0.125 3.84375 0.125 C 3.363281 0.125 2.960938 0.0351562 2.640625 -0.140625 C 2.316406 -0.316406 2.054688 -0.597656 1.859375 -0.984375 C 1.859375 -0.859375 1.847656 -0.671875 1.828125 -0.421875 C 1.816406 -0.179688 1.804688 -0.0390625 1.796875 0 L 0.78125 0 C 0.800781 -0.207031 0.8125 -0.644531 0.8125 -1.3125 L 0.8125 -8.703125 L 1.859375 -8.703125 L 1.859375 -6.21875 C 1.859375 -5.96875 1.851562 -5.671875 1.84375 -5.328125 L 1.859375 -5.328125 C 2.054688 -5.734375 2.316406 -6.019531 2.640625 -6.1875 C 2.960938 -6.363281 3.363281 -6.453125 3.84375 -6.453125 C 4.644531 -6.453125 5.234375 -6.179688 5.609375 -5.640625 C 5.984375 -5.109375 6.171875 -4.296875 6.171875 -3.203125 Z M 5.0625 -3.171875 C 5.0625 -4.054688 4.941406 -4.6875 4.703125 -5.0625 C 4.472656 -5.445312 4.09375 -5.640625 3.5625 -5.640625 C 2.96875 -5.640625 2.535156 -5.4375 2.265625 -5.03125 C 1.992188 -4.625 1.859375 -3.976562 1.859375 -3.09375 C 1.859375 -2.269531 1.988281 -1.65625 2.25 -1.25 C 2.519531 -0.851562 2.957031 -0.65625 3.5625 -0.65625 C 4.09375 -0.65625 4.472656 -0.851562 4.703125 -1.25 C 4.941406 -1.644531 5.0625 -2.285156 5.0625 -3.171875 Z M 5.0625 -3.171875 "/>
</g>
<g id="glyph-0-12">
<path d="M 6.171875 -2.6875 C 6.171875 -1.820312 5.910156 -1.132812 5.390625 -0.625 C 4.878906 -0.125 4.160156 0.125 3.234375 0.125 C 2.472656 0.125 1.851562 -0.0390625 1.375 -0.375 C 0.90625 -0.71875 0.609375 -1.207031 0.484375 -1.84375 L 1.546875 -1.96875 C 1.765625 -1.15625 2.335938 -0.75 3.265625 -0.75 C 3.828125 -0.75 4.269531 -0.914062 4.59375 -1.25 C 4.914062 -1.59375 5.078125 -2.066406 5.078125 -2.671875 C 5.078125 -3.191406 4.914062 -3.609375 4.59375 -3.921875 C 4.269531 -4.242188 3.832031 -4.40625 3.28125 -4.40625 C 3 -4.40625 2.734375 -4.359375 2.484375 -4.265625 C 2.242188 -4.179688 2 -4.03125 1.75 -3.8125 L 0.71875 -3.8125 L 1 -8.25 L 5.6875 -8.25 L 5.6875 -7.359375 L 1.953125 -7.359375 L 1.796875 -4.734375 C 2.253906 -5.085938 2.820312 -5.265625 3.5 -5.265625 C 4.3125 -5.265625 4.957031 -5.023438 5.4375 -4.546875 C 5.925781 -4.078125 6.171875 -3.457031 6.171875 -2.6875 Z M 6.171875 -2.6875 "/>
</g>
<g id="glyph-0-13">
<path d="M 0.921875 0 L 0.921875 -0.890625 L 3.015625 -0.890625 L 3.015625 -7.25 L 1.15625 -5.921875 L 1.15625 -6.921875 L 3.109375 -8.25 L 4.078125 -8.25 L 4.078125 -0.890625 L 6.09375 -0.890625 L 6.09375 0 Z M 0.921875 0 "/>
</g>
<g id="glyph-0-14">
<path d="M 6.203125 -4.125 C 6.203125 -2.75 5.957031 -1.695312 5.46875 -0.96875 C 4.988281 -0.238281 4.273438 0.125 3.328125 0.125 C 2.378906 0.125 1.664062 -0.234375 1.1875 -0.953125 C 0.707031 -1.679688 0.46875 -2.738281 0.46875 -4.125 C 0.46875 -5.550781 0.695312 -6.613281 1.15625 -7.3125 C 1.625 -8.019531 2.359375 -8.375 3.359375 -8.375 C 4.328125 -8.375 5.039062 -8.015625 5.5 -7.296875 C 5.96875 -6.585938 6.203125 -5.53125 6.203125 -4.125 Z M 5.140625 -4.125 C 5.140625 -5.320312 5 -6.1875 4.71875 -6.71875 C 4.445312 -7.257812 3.992188 -7.53125 3.359375 -7.53125 C 2.710938 -7.53125 2.242188 -7.265625 1.953125 -6.734375 C 1.671875 -6.203125 1.53125 -5.332031 1.53125 -4.125 C 1.53125 -2.957031 1.671875 -2.101562 1.953125 -1.5625 C 2.242188 -1.019531 2.703125 -0.75 3.328125 -0.75 C 3.953125 -0.75 4.410156 -1.023438 4.703125 -1.578125 C 4.992188 -2.128906 5.140625 -2.976562 5.140625 -4.125 Z M 5.140625 -4.125 "/>
</g>
<g id="glyph-0-15">
<path d="M 0.609375 0 L 0.609375 -0.75 C 0.804688 -1.207031 1.046875 -1.609375 1.328125 -1.953125 C 1.617188 -2.304688 1.921875 -2.625 2.234375 -2.90625 C 2.554688 -3.1875 2.867188 -3.445312 3.171875 -3.6875 C 3.484375 -3.9375 3.765625 -4.179688 4.015625 -4.421875 C 4.265625 -4.660156 4.46875 -4.910156 4.625 -5.171875 C 4.78125 -5.441406 4.859375 -5.742188 4.859375 -6.078125 C 4.859375 -6.535156 4.722656 -6.890625 4.453125 -7.140625 C 4.191406 -7.390625 3.828125 -7.515625 3.359375 -7.515625 C 2.898438 -7.515625 2.523438 -7.390625 2.234375 -7.140625 C 1.953125 -6.898438 1.785156 -6.5625 1.734375 -6.125 L 0.65625 -6.21875 C 0.726562 -6.875 1.003906 -7.394531 1.484375 -7.78125 C 1.972656 -8.175781 2.597656 -8.375 3.359375 -8.375 C 4.179688 -8.375 4.816406 -8.175781 5.265625 -7.78125 C 5.710938 -7.394531 5.9375 -6.84375 5.9375 -6.125 C 5.9375 -5.800781 5.863281 -5.476562 5.71875 -5.15625 C 5.570312 -4.84375 5.351562 -4.523438 5.0625 -4.203125 C 4.78125 -3.890625 4.226562 -3.40625 3.40625 -2.75 C 2.957031 -2.375 2.597656 -2.039062 2.328125 -1.75 C 2.066406 -1.457031 1.878906 -1.171875 1.765625 -0.890625 L 6.078125 -0.890625 L 6.078125 0 Z M 0.609375 0 "/>
</g>
<g id="glyph-0-16">
<path d="M 8 0 L 8 -5.515625 C 8 -6.117188 8.019531 -6.703125 8.0625 -7.265625 C 7.863281 -6.566406 7.691406 -6.019531 7.546875 -5.625 L 5.40625 0 L 4.625 0 L 2.46875 -5.625 L 2.140625 -6.625 L 1.9375 -7.265625 L 1.953125 -6.609375 L 1.984375 -5.515625 L 1.984375 0 L 0.984375 0 L 0.984375 -8.25 L 2.453125 -8.25 L 4.65625 -2.53125 C 4.726562 -2.300781 4.800781 -2.050781 4.875 -1.78125 C 4.945312 -1.519531 4.992188 -1.332031 5.015625 -1.21875 C 5.046875 -1.375 5.113281 -1.609375 5.21875 -1.921875 C 5.320312 -2.242188 5.390625 -2.445312 5.421875 -2.53125 L 7.578125 -8.25 L 9.015625 -8.25 L 9.015625 0 Z M 8 0 "/>
</g>
<g id="glyph-0-17">
<path d="M 8.09375 -4.21875 C 8.09375 -3.363281 7.925781 -2.613281 7.59375 -1.96875 C 7.257812 -1.332031 6.785156 -0.84375 6.171875 -0.5 C 5.566406 -0.164062 4.867188 0 4.078125 0 L 0.984375 0 L 0.984375 -8.25 L 3.71875 -8.25 C 5.113281 -8.25 6.191406 -7.898438 6.953125 -7.203125 C 7.710938 -6.503906 8.09375 -5.507812 8.09375 -4.21875 Z M 6.96875 -4.21875 C 6.96875 -5.238281 6.6875 -6.015625 6.125 -6.546875 C 5.5625 -7.085938 4.75 -7.359375 3.6875 -7.359375 L 2.109375 -7.359375 L 2.109375 -0.890625 L 3.9375 -0.890625 C 4.550781 -0.890625 5.085938 -1.019531 5.546875 -1.28125 C 6.003906 -1.550781 6.351562 -1.9375 6.59375 -2.4375 C 6.84375 -2.9375 6.96875 -3.53125 6.96875 -4.21875 Z M 6.96875 -4.21875 "/>
</g>
<g id="glyph-0-18">
<path d="M 1.609375 -3.203125 C 1.609375 -2.359375 1.738281 -1.734375 2 -1.328125 C 2.269531 -0.921875 2.675781 -0.71875 3.21875 -0.71875 C 3.59375 -0.71875 3.90625 -0.816406 4.15625 -1.015625 C 4.40625 -1.222656 4.5625 -1.535156 4.625 -1.953125 L 5.6875 -1.890625 C 5.601562 -1.273438 5.34375 -0.785156 4.90625 -0.421875 C 4.46875 -0.0546875 3.910156 0.125 3.234375 0.125 C 2.347656 0.125 1.671875 -0.15625 1.203125 -0.71875 C 0.742188 -1.28125 0.515625 -2.097656 0.515625 -3.171875 C 0.515625 -4.242188 0.75 -5.054688 1.21875 -5.609375 C 1.6875 -6.171875 2.359375 -6.453125 3.234375 -6.453125 C 3.878906 -6.453125 4.414062 -6.285156 4.84375 -5.953125 C 5.269531 -5.617188 5.539062 -5.15625 5.65625 -4.5625 L 4.5625 -4.484375 C 4.507812 -4.835938 4.367188 -5.113281 4.140625 -5.3125 C 3.921875 -5.519531 3.609375 -5.625 3.203125 -5.625 C 2.640625 -5.625 2.234375 -5.4375 1.984375 -5.0625 C 1.734375 -4.695312 1.609375 -4.078125 1.609375 -3.203125 Z M 1.609375 -3.203125 "/>
</g>
<g id="glyph-0-19">
<path d="M 5.5625 -1.75 C 5.5625 -1.15625 5.335938 -0.691406 4.890625 -0.359375 C 4.441406 -0.0351562 3.8125 0.125 3 0.125 C 2.207031 0.125 1.597656 -0.00390625 1.171875 -0.265625 C 0.742188 -0.523438 0.460938 -0.929688 0.328125 -1.484375 L 1.265625 -1.671875 C 1.359375 -1.328125 1.546875 -1.078125 1.828125 -0.921875 C 2.109375 -0.765625 2.5 -0.6875 3 -0.6875 C 3.53125 -0.6875 3.921875 -0.765625 4.171875 -0.921875 C 4.421875 -1.085938 4.546875 -1.335938 4.546875 -1.671875 C 4.546875 -1.921875 4.457031 -2.125 4.28125 -2.28125 C 4.113281 -2.4375 3.835938 -2.566406 3.453125 -2.671875 L 2.703125 -2.859375 C 2.085938 -3.015625 1.648438 -3.164062 1.390625 -3.3125 C 1.140625 -3.46875 0.941406 -3.65625 0.796875 -3.875 C 0.660156 -4.09375 0.59375 -4.359375 0.59375 -4.671875 C 0.59375 -5.242188 0.796875 -5.679688 1.203125 -5.984375 C 1.617188 -6.285156 2.21875 -6.4375 3 -6.4375 C 3.707031 -6.4375 4.265625 -6.3125 4.671875 -6.0625 C 5.085938 -5.820312 5.347656 -5.429688 5.453125 -4.890625 L 4.5 -4.765625 C 4.445312 -5.046875 4.289062 -5.257812 4.03125 -5.40625 C 3.78125 -5.5625 3.4375 -5.640625 3 -5.640625 C 2.53125 -5.640625 2.179688 -5.566406 1.953125 -5.421875 C 1.722656 -5.273438 1.609375 -5.054688 1.609375 -4.765625 C 1.609375 -4.585938 1.65625 -4.441406 1.75 -4.328125 C 1.84375 -4.210938 1.976562 -4.113281 2.15625 -4.03125 C 2.34375 -3.945312 2.734375 -3.832031 3.328125 -3.6875 C 3.890625 -3.539062 4.289062 -3.410156 4.53125 -3.296875 C 4.78125 -3.179688 4.972656 -3.050781 5.109375 -2.90625 C 5.253906 -2.757812 5.363281 -2.585938 5.4375 -2.390625 C 5.519531 -2.203125 5.5625 -1.988281 5.5625 -1.75 Z M 5.5625 -1.75 "/>
</g>
<g id="glyph-0-20">
<path d="M 6.84375 0 L 5.890625 -2.421875 L 2.140625 -2.421875 L 1.1875 0 L 0.03125 0 L 3.390625 -8.25 L 4.671875 -8.25 L 7.984375 0 Z M 4.015625 -7.40625 L 3.96875 -7.25 C 3.863281 -6.925781 3.71875 -6.507812 3.53125 -6 L 2.46875 -3.28125 L 5.5625 -3.28125 L 4.5 -6.015625 C 4.394531 -6.285156 4.285156 -6.585938 4.171875 -6.921875 Z M 4.015625 -7.40625 "/>
</g>
<g id="glyph-0-21">
<path d="M 1.125 2.484375 C 0.832031 2.484375 0.585938 2.460938 0.390625 2.421875 L 0.390625 1.640625 C 0.535156 1.660156 0.703125 1.671875 0.890625 1.671875 C 1.546875 1.671875 2.0625 1.1875 2.4375 0.21875 L 2.546875 -0.03125 L 0.03125 -6.34375 L 1.15625 -6.34375 L 2.484375 -2.84375 C 2.503906 -2.78125 2.53125 -2.710938 2.5625 -2.640625 C 2.59375 -2.566406 2.679688 -2.3125 2.828125 -1.875 C 2.972656 -1.4375 3.050781 -1.195312 3.0625 -1.15625 L 3.46875 -2.296875 L 4.859375 -6.34375 L 5.984375 -6.34375 L 3.546875 0 C 3.273438 0.675781 3.023438 1.175781 2.796875 1.5 C 2.578125 1.832031 2.328125 2.078125 2.046875 2.234375 C 1.773438 2.398438 1.46875 2.484375 1.125 2.484375 Z M 1.125 2.484375 "/>
</g>
<g id="glyph-0-22">
<path d="M 0.609375 -4.171875 C 0.609375 -5.503906 0.96875 -6.535156 1.6875 -7.265625 C 2.40625 -8.003906 3.414062 -8.375 4.71875 -8.375 C 5.625 -8.375 6.363281 -8.21875 6.9375 -7.90625 C 7.507812 -7.601562 7.945312 -7.113281 8.25 -6.4375 L 7.1875 -6.125 C 6.957031 -6.59375 6.632812 -6.929688 6.21875 -7.140625 C 5.8125 -7.359375 5.300781 -7.46875 4.6875 -7.46875 C 3.726562 -7.46875 2.992188 -7.175781 2.484375 -6.59375 C 1.984375 -6.019531 1.734375 -5.210938 1.734375 -4.171875 C 1.734375 -3.128906 2 -2.304688 2.53125 -1.703125 C 3.070312 -1.097656 3.816406 -0.796875 4.765625 -0.796875 C 5.304688 -0.796875 5.804688 -0.875 6.265625 -1.03125 C 6.734375 -1.195312 7.113281 -1.421875 7.40625 -1.703125 L 7.40625 -3.1875 L 4.9375 -3.1875 L 4.9375 -4.125 L 8.4375 -4.125 L 8.4375 -1.28125 C 8 -0.832031 7.460938 -0.484375 6.828125 -0.234375 C 6.191406 0.00390625 5.503906 0.125 4.765625 0.125 C 3.898438 0.125 3.15625 -0.046875 2.53125 -0.390625 C 1.90625 -0.742188 1.425781 -1.242188 1.09375 -1.890625 C 0.769531 -2.535156 0.609375 -3.296875 0.609375 -4.171875 Z M 0.609375 -4.171875 "/>
</g>
<g id="glyph-0-23">
<path d="M 0.796875 -7.6875 L 0.796875 -8.703125 L 1.859375 -8.703125 L 1.859375 -7.6875 Z M 0.796875 0 L 0.796875 -6.34375 L 1.859375 -6.34375 L 1.859375 0 Z M 0.796875 0 "/>
</g>
<g id="glyph-1-0">
<path d="M 1 0 L 1 -5.84375 C 1 -6.375 0.984375 -6.960938 0.953125 -7.609375 L 2.15625 -7.609375 C 2.1875 -6.742188 2.203125 -6.226562 2.203125 -6.0625 L 2.234375 -6.0625 C 2.441406 -6.707031 2.675781 -7.148438 2.9375 -7.390625 C 3.195312 -7.628906 3.566406 -7.75 4.046875 -7.75 C 4.210938 -7.75 4.382812 -7.726562 4.5625 -7.6875 L 4.5625 -6.515625 C 4.394531 -6.566406 4.171875 -6.59375 3.890625 -6.59375 C 3.359375 -6.59375 2.953125 -6.363281 2.671875 -5.90625 C 2.398438 -5.457031 2.265625 -4.8125 2.265625 -3.96875 L 2.265625 0 Z M 1 0 "/>
</g>
<g id="glyph-1-1">
<path d="M 2.546875 -6.6875 L 2.546875 0 L 1.265625 0 L 1.265625 -6.6875 L 0.203125 -6.6875 L 0.203125 -7.609375 L 1.265625 -7.609375 L 1.265625 -8.46875 C 1.265625 -9.164062 1.414062 -9.664062 1.71875 -9.96875 C 2.03125 -10.269531 2.5 -10.421875 3.125 -10.421875 C 3.476562 -10.421875 3.78125 -10.394531 4.03125 -10.34375 L 4.03125 -9.375 C 3.8125 -9.414062 3.617188 -9.4375 3.453125 -9.4375 C 3.128906 -9.4375 2.894531 -9.351562 2.75 -9.1875 C 2.613281 -9.019531 2.546875 -8.722656 2.546875 -8.296875 L 2.546875 -7.609375 L 4.03125 -7.609375 L 4.03125 -6.6875 Z M 2.546875 -6.6875 "/>
</g>
<g id="glyph-1-2">
<path d="M -0.21875 2.859375 L -0.21875 1.953125 L 8.171875 1.953125 L 8.171875 2.859375 Z M -0.21875 2.859375 "/>
</g>
<g id="glyph-1-3">
<path d="M 5.40625 0 L 5.40625 -4.828125 C 5.40625 -5.566406 5.300781 -6.078125 5.09375 -6.359375 C 4.894531 -6.640625 4.535156 -6.78125 4.015625 -6.78125 C 3.472656 -6.78125 3.046875 -6.570312 2.734375 -6.15625 C 2.421875 -5.738281 2.265625 -5.15625 2.265625 -4.40625 L 2.265625 0 L 1 0 L 1 -5.984375 C 1 -6.867188 0.984375 -7.410156 0.953125 -7.609375 L 2.15625 -7.609375 C 2.15625 -7.585938 2.15625 -7.523438 2.15625 -7.421875 C 2.164062 -7.316406 2.171875 -7.195312 2.171875 -7.0625 C 2.179688 -6.925781 2.191406 -6.675781 2.203125 -6.3125 L 2.234375 -6.3125 C 2.503906 -6.851562 2.8125 -7.226562 3.15625 -7.4375 C 3.507812 -7.644531 3.941406 -7.75 4.453125 -7.75 C 5.023438 -7.75 5.476562 -7.632812 5.8125 -7.40625 C 6.15625 -7.175781 6.390625 -6.8125 6.515625 -6.3125 L 6.546875 -6.3125 C 6.804688 -6.820312 7.117188 -7.1875 7.484375 -7.40625 C 7.859375 -7.632812 8.3125 -7.75 8.84375 -7.75 C 9.613281 -7.75 10.171875 -7.539062 10.515625 -7.125 C 10.867188 -6.707031 11.046875 -6.023438 11.046875 -5.078125 L 11.046875 0 L 9.796875 0 L 9.796875 -4.828125 C 9.796875 -5.566406 9.691406 -6.078125 9.484375 -6.359375 C 9.285156 -6.640625 8.925781 -6.78125 8.40625 -6.78125 C 7.851562 -6.78125 7.421875 -6.570312 7.109375 -6.15625 C 6.804688 -5.75 6.65625 -5.164062 6.65625 -4.40625 L 6.65625 0 Z M 5.40625 0 "/>
</g>
<g id="glyph-1-4">
<path d="M 7.40625 -3.8125 C 7.40625 -2.476562 7.113281 -1.484375 6.53125 -0.828125 C 5.945312 -0.179688 5.09375 0.140625 3.96875 0.140625 C 2.863281 0.140625 2.023438 -0.195312 1.453125 -0.875 C 0.890625 -1.550781 0.609375 -2.53125 0.609375 -3.8125 C 0.609375 -6.4375 1.742188 -7.75 4.015625 -7.75 C 5.179688 -7.75 6.035156 -7.425781 6.578125 -6.78125 C 7.128906 -6.144531 7.40625 -5.15625 7.40625 -3.8125 Z M 6.078125 -3.8125 C 6.078125 -4.863281 5.921875 -5.625 5.609375 -6.09375 C 5.296875 -6.570312 4.769531 -6.8125 4.03125 -6.8125 C 3.289062 -6.8125 2.753906 -6.566406 2.421875 -6.078125 C 2.097656 -5.597656 1.9375 -4.84375 1.9375 -3.8125 C 1.9375 -2.8125 2.097656 -2.054688 2.421875 -1.546875 C 2.742188 -1.046875 3.253906 -0.796875 3.953125 -0.796875 C 4.710938 -0.796875 5.253906 -1.039062 5.578125 -1.53125 C 5.910156 -2.019531 6.078125 -2.78125 6.078125 -3.8125 Z M 6.078125 -3.8125 "/>
</g>
<g id="glyph-1-5">
<path d="M 5.78125 -1.21875 C 5.539062 -0.738281 5.226562 -0.390625 4.84375 -0.171875 C 4.457031 0.0351562 3.976562 0.140625 3.40625 0.140625 C 2.445312 0.140625 1.738281 -0.179688 1.28125 -0.828125 C 0.832031 -1.472656 0.609375 -2.453125 0.609375 -3.765625 C 0.609375 -6.421875 1.539062 -7.75 3.40625 -7.75 C 3.976562 -7.75 4.457031 -7.644531 4.84375 -7.4375 C 5.226562 -7.226562 5.539062 -6.890625 5.78125 -6.421875 L 5.796875 -6.421875 L 5.78125 -7.28125 L 5.78125 -10.4375 L 7.046875 -10.4375 L 7.046875 -1.5625 C 7.046875 -0.769531 7.054688 -0.25 7.078125 0 L 5.875 0 C 5.863281 -0.0703125 5.847656 -0.242188 5.828125 -0.515625 C 5.804688 -0.785156 5.796875 -1.019531 5.796875 -1.21875 Z M 1.9375 -3.8125 C 1.9375 -2.75 2.078125 -1.988281 2.359375 -1.53125 C 2.640625 -1.070312 3.097656 -0.84375 3.734375 -0.84375 C 4.441406 -0.84375 4.957031 -1.085938 5.28125 -1.578125 C 5.613281 -2.078125 5.78125 -2.847656 5.78125 -3.890625 C 5.78125 -4.898438 5.613281 -5.640625 5.28125 -6.109375 C 4.957031 -6.578125 4.445312 -6.8125 3.75 -6.8125 C 3.101562 -6.8125 2.640625 -6.578125 2.359375 -6.109375 C 2.078125 -5.640625 1.9375 -4.875 1.9375 -3.8125 Z M 1.9375 -3.8125 "/>
</g>
<g id="glyph-1-6">
<path d="M 1.9375 -3.53125 C 1.9375 -2.664062 2.117188 -1.992188 2.484375 -1.515625 C 2.847656 -1.046875 3.375 -0.8125 4.0625 -0.8125 C 4.613281 -0.8125 5.050781 -0.921875 5.375 -1.140625 C 5.707031 -1.359375 5.9375 -1.640625 6.0625 -1.984375 L 7.171875 -1.65625 C 6.710938 -0.457031 5.675781 0.140625 4.0625 0.140625 C 2.9375 0.140625 2.078125 -0.191406 1.484375 -0.859375 C 0.898438 -1.535156 0.609375 -2.535156 0.609375 -3.859375 C 0.609375 -5.109375 0.898438 -6.066406 1.484375 -6.734375 C 2.078125 -7.410156 2.921875 -7.75 4.015625 -7.75 C 6.253906 -7.75 7.375 -6.398438 7.375 -3.703125 L 7.375 -3.53125 Z M 6.0625 -4.515625 C 5.988281 -5.316406 5.78125 -5.898438 5.4375 -6.265625 C 5.101562 -6.628906 4.625 -6.8125 4 -6.8125 C 3.382812 -6.8125 2.894531 -6.601562 2.53125 -6.1875 C 2.175781 -5.78125 1.984375 -5.222656 1.953125 -4.515625 Z M 6.0625 -4.515625 "/>
</g>
<g id="glyph-1-7">
<path d="M 0.96875 0 L 0.96875 -10.4375 L 2.234375 -10.4375 L 2.234375 0 Z M 0.96875 0 "/>
</g>
</g>
<clipPath id="clip-0">
<path clip-rule="nonzero" d="M 72 579 L 525.601562 579 L 525.601562 581 L 72 581 Z M 72 579 "/>
</clipPath>
<clipPath id="clip-1">
<path clip-rule="nonzero" d="M 72 497 L 525.601562 497 L 525.601562 499 L 72 499 Z M 72 497 "/>
</clipPath>
<clipPath id="clip-2">
<path clip-rule="nonzero" d="M 72 415 L 525.601562 415 L 525.601562 416 L 72 416 Z M 72 415 "/>
</clipPath>
<clipPath id="clip-3">
<path clip-rule="nonzero" d="M 72 332 L 525.601562 332 L 525.601562 334 L 72 334 Z M 72 332 "/>
</clipPath>
<clipPath id="clip-4">
<path clip-rule="nonzero" d="M 72 250 L 525.601562 250 L 525.601562 252 L 72 252 Z M 72 250 "/>
</clipPath>
<clipPath id="clip-5">
<path clip-rule="nonzero" d="M 72 168 L 525.601562 168 L 525.601562 170 L 72 170 Z M 72 168 "/>
</clipPath>
<clipPath id="clip-6">
<path clip-rule="nonzero" d="M 612 579 L 1065.601562 579 L 1065.601562 581 L 612 581 Z M 612 579 "/>
</clipPath>
<clipPath id="clip-7">
<path clip-rule="nonzero" d="M 612 497 L 1065.601562 497 L 1065.601562 499 L 612 499 Z M 612 497 "/>
</clipPath>
<clipPath id="clip-8">
<path clip-rule="nonzero" d="M 612 415 L 1065.601562 415 L 1065.601562 416 L 612 416 Z M 612 415 "/>
</clipPath>
<clipPath id="clip-9">
<path clip-rule="nonzero" d="M 612 332 L 1065.601562 332 L 1065.601562 334 L 612 334 Z M 612 332 "/>
</clipPath>
<clipPath id="clip-10">
<path clip-rule="nonzero" d="M 612 250 L 1065.601562 250 L 1065.601562 252 L 612 252 Z M 612 250 "/>
</clipPath>
<clipPath id="clip-11">
<path clip-rule="nonzero" d="M 612 168 L 1065.601562 168 L 1065.601562 170 L 612 170 Z M 612 168 "/>
</clipPath>
</defs>
<rect x="-108" y="-72" width="1296" height="864" fill="rgb(100%, 100%, 100%)" fill-opacity="1"/>
<g fill="rgb(0%, 0%, 0%)" fill-opacity="1">
<use xlink:href="#glyph-0-0" x="25.800781" y="584.476562"/>
<use xlink:href="#glyph-0-1" x="32.800781" y="584.476562"/>
<use xlink:href="#glyph-0-2" x="39.800781" y="584.476562"/>
<use xlink:href="#glyph-0-3" x="42.800781" y="584.476562"/>
<use xlink:href="#glyph-0-4" x="49.800781" y="584.476562"/>
</g>
<g fill="rgb(0%, 0%, 0%)" fill-opacity="1">
<use xlink:href="#glyph-0-5" x="25.800781" y="502.191406"/>
<use xlink:href="#glyph-0-6" x="32.800781" y="502.191406"/>
<use xlink:href="#glyph-0-7" x="39.800781" y="502.191406"/>
<use xlink:href="#glyph-0-8" x="46.800781" y="502.191406"/>
<use xlink:href="#glyph-0-6" x="53.800781" y="502.191406"/>
<use xlink:href="#glyph-0-9" x="60.800781" y="502.191406"/>
</g>
<g fill="rgb(0%, 0%, 0%)" fill-opacity="1">
<use xlink:href="#glyph-0-10" x="25.800781" y="419.90625"/>
<use xlink:href="#glyph-0-10" x="35.800781" y="419.90625"/>
<use xlink:href="#glyph-0-2" x="45.800781" y="419.90625"/>
</g>
<g fill="rgb(0%, 0%, 0%)" fill-opacity="1">
<use xlink:href="#glyph-0-3" x="25.800781" y="337.621094"/>
<use xlink:href="#glyph-0-11" x="32.800781" y="337.621094"/>
<use xlink:href="#glyph-0-6" x="39.800781" y="337.621094"/>
<use xlink:href="#glyph-0-2" x="46.800781" y="337.621094"/>
<use xlink:href="#glyph-0-3" x="49.800781" y="337.621094"/>
</g>
<g fill="rgb(0%, 0%, 0%)" fill-opacity="1">
<use xlink:href="#glyph-0-2" x="25.800781" y="255.335938"/>
<use xlink:href="#glyph-0-1" x="28.800781" y="255.335938"/>
<use xlink:href="#glyph-0-2" x="35.800781" y="255.335938"/>
<use xlink:href="#glyph-0-3" x="38.800781" y="255.335938"/>
<use xlink:href="#glyph-0-4" x="45.800781" y="255.335938"/>
</g>
<g fill="rgb(0%, 0%, 0%)" fill-opacity="1">
<use xlink:href="#glyph-0-3" x="25.800781" y="173.050781"/>
<use xlink:href="#glyph-0-5" x="32.800781" y="173.050781"/>
<use xlink:href="#glyph-0-6" x="39.800781" y="173.050781"/>
</g>
<g clip-path="url(#clip-0)">
<path fill="none" stroke-width="0.75" stroke-linecap="round" stroke-linejoin="round" stroke="rgb(74.509804%, 74.509804%, 74.509804%)" stroke-opacity="1" stroke-dasharray="0.75 2.25" stroke-miterlimit="10" d="M 72 580.113281 L 525.601562 580.113281 "/>
</g>
<g clip-path="url(#clip-1)">
<path fill="none" stroke-width="0.75" stroke-linecap="round" stroke-linejoin="round" stroke="rgb(74.509804%, 74.509804%, 74.509804%)" stroke-opacity="1" stroke-dasharray="0.75 2.25" stroke-miterlimit="10" d="M 72 497.828125 L 525.601562 497.828125 "/>
</g>
<g clip-path="url(#clip-2)">
<path fill="none" stroke-width="0.75" stroke-linecap="round" stroke-linejoin="round" stroke="rgb(74.509804%, 74.509804%, 74.509804%)" stroke-opacity="1" stroke-dasharray="0.75 2.25" stroke-miterlimit="10" d="M 72 415.542969 L 525.601562 415.542969 "/>
</g>
<g clip-path="url(#clip-3)">
<path fill="none" stroke-width="0.75" stroke-linecap="round" stroke-linejoin="round" stroke="rgb(74.509804%, 74.509804%, 74.509804%)" stroke-opacity="1" stroke-dasharray="0.75 2.25" stroke-miterlimit="10" d="M 72 333.257812 L 525.601562 333.257812 "/>
</g>
<g clip-path="url(#clip-4)">
<path fill="none" stroke-width="0.75" stroke-linecap="round" stroke-linejoin="round" stroke="rgb(74.509804%, 74.509804%, 74.509804%)" stroke-opacity="1" stroke-dasharray="0.75 2.25" stroke-miterlimit="10" d="M 72 250.972656 L 525.601562 250.972656 "/>
</g>
<g clip-path="url(#clip-5)">
<path fill="none" stroke-width="0.75" stroke-linecap="round" stroke-linejoin="round" stroke="rgb(74.509804%, 74.509804%, 74.509804%)" stroke-opacity="1" stroke-dasharray="0.75 2.25" stroke-miterlimit="10" d="M 72 168.6875 L 525.601562 168.6875 "/>
</g>
<path fill-rule="nonzero" fill="rgb(100%, 100%, 100%)" fill-opacity="1" stroke-width="0.75" stroke-linecap="round" stroke-linejoin="round" stroke="rgb(0%, 0%, 0%)" stroke-opacity="1" stroke-miterlimit="10" d="M 91.5 580.113281 C 91.5 583.714844 86.101562 583.714844 86.101562 580.113281 C 86.101562 576.515625 91.5 576.515625 91.5 580.113281 "/>
<path fill-rule="nonzero" fill="rgb(100%, 100%, 100%)" fill-opacity="1" stroke-width="0.75" stroke-linecap="round" stroke-linejoin="round" stroke="rgb(0%, 0%, 0%)" stroke-opacity="1" stroke-miterlimit="10" d="M 177.863281 497.828125 C 177.863281 501.429688 172.460938 501.429688 172.460938 497.828125 C 172.460938 494.230469 177.863281 494.230469 177.863281 497.828125 "/>
<path fill-rule="nonzero" fill="rgb(100%, 100%, 100%)" fill-opacity="1" stroke-width="0.75" stroke-linecap="round" stroke-linejoin="round" stroke="rgb(0%, 0%, 0%)" stroke-opacity="1" stroke-miterlimit="10" d="M 260.339844 415.542969 C 260.339844 419.144531 254.941406 419.144531 254.941406 415.542969 C 254.941406 411.941406 260.339844 411.941406 260.339844 415.542969 "/>
<path fill-rule="nonzero" fill="rgb(100%, 100%, 100%)" fill-opacity="1" stroke-width="0.75" stroke-linecap="round" stroke-linejoin="round" stroke="rgb(0%, 0%, 0%)" stroke-opacity="1" stroke-miterlimit="10" d="M 261.703125 333.257812 C 261.703125 336.855469 256.300781 336.855469 256.300781 333.257812 C 256.300781 329.65625 261.703125 329.65625 261.703125 333.257812 "/>
<path fill-rule="nonzero" fill="rgb(100%, 100%, 100%)" fill-opacity="1" stroke-width="0.75" stroke-linecap="round" stroke-linejoin="round" stroke="rgb(0%, 0%, 0%)" stroke-opacity="1" stroke-miterlimit="10" d="M 337.039062 250.972656 C 337.039062 254.570312 331.640625 254.570312 331.640625 250.972656 C 331.640625 247.371094 337.039062 247.371094 337.039062 250.972656 "/>
<path fill-rule="nonzero" fill="rgb(100%, 100%, 100%)" fill-opacity="1" stroke-width="0.75" stroke-linecap="round" stroke-linejoin="round" stroke="rgb(0%, 0%, 0%)" stroke-opacity="1" stroke-miterlimit="10" d="M 511.5 168.6875 C 511.5 172.285156 506.101562 172.285156 506.101562 168.6875 C 506.101562 165.085938 511.5 165.085938 511.5 168.6875 "/>
<path fill="none" stroke-width="0.75" stroke-linecap="round" stroke-linejoin="round" stroke="rgb(0%, 0%, 0%)" stroke-opacity="1" stroke-miterlimit="10" d="M 147.984375 662.398438 L 510.144531 662.398438 "/>
<path fill="none" stroke-width="0.75" stroke-linecap="round" stroke-linejoin="round" stroke="rgb(0%, 0%, 0%)" stroke-opacity="1" stroke-miterlimit="10" d="M 147.984375 662.398438 L 147.984375 669.601562 "/>
<path fill="none" stroke-width="0.75" stroke-linecap="round" stroke-linejoin="round" stroke="rgb(0%, 0%, 0%)" stroke-opacity="1" stroke-miterlimit="10" d="M 268.703125 662.398438 L 268.703125 669.601562 "/>
<path fill="none" stroke-width="0.75" stroke-linecap="round" stroke-linejoin="round" stroke="rgb(0%, 0%, 0%)" stroke-opacity="1" stroke-miterlimit="10" d="M 389.425781 662.398438 L 389.425781 669.601562 "/>
<path fill="none" stroke-width="0.75" stroke-linecap="round" stroke-linejoin="round" stroke="rgb(0%, 0%, 0%)" stroke-opacity="1" stroke-miterlimit="10" d="M 510.144531 662.398438 L 510.144531 669.601562 "/>
<g fill="rgb(0%, 0%, 0%)" fill-opacity="1">
<use xlink:href="#glyph-0-12" x="144.484375" y="685.304688"/>
</g>
<g fill="rgb(0%, 0%, 0%)" fill-opacity="1">
<use xlink:href="#glyph-0-13" x="261.703125" y="685.304688"/>
<use xlink:href="#glyph-0-14" x="268.703125" y="685.304688"/>
</g>
<g fill="rgb(0%, 0%, 0%)" fill-opacity="1">
<use xlink:href="#glyph-0-13" x="382.425781" y="685.304688"/>
<use xlink:href="#glyph-0-12" x="389.425781" y="685.304688"/>
</g>
<g fill="rgb(0%, 0%, 0%)" fill-opacity="1">
<use xlink:href="#glyph-0-15" x="503.144531" y="685.304688"/>
<use xlink:href="#glyph-0-14" x="510.144531" y="685.304688"/>
</g>
<path fill="none" stroke-width="0.75" stroke-linecap="round" stroke-linejoin="round" stroke="rgb(0%, 0%, 0%)" stroke-opacity="1" stroke-miterlimit="10" d="M 72 662.398438 L 525.601562 662.398438 L 525.601562 86.398438 L 72 86.398438 Z M 72 662.398438 "/>
<g fill="rgb(0%, 0%, 0%)" fill-opacity="1">
<use xlink:href="#glyph-0-16" x="231.800781" y="702.582031"/>
<use xlink:href="#glyph-0-6" x="241.800781" y="702.582031"/>
<use xlink:href="#glyph-0-3" x="248.800781" y="702.582031"/>
<use xlink:href="#glyph-0-7" x="255.800781" y="702.582031"/>
<use xlink:href="#glyph-0-17" x="262.800781" y="702.582031"/>
<use xlink:href="#glyph-0-6" x="271.800781" y="702.582031"/>
<use xlink:href="#glyph-0-18" x="278.800781" y="702.582031"/>
<use xlink:href="#glyph-0-9" x="284.800781" y="702.582031"/>
<use xlink:href="#glyph-0-6" x="288.800781" y="702.582031"/>
<use xlink:href="#glyph-0-3" x="295.800781" y="702.582031"/>
<use xlink:href="#glyph-0-19" x="302.800781" y="702.582031"/>
<use xlink:href="#glyph-0-6" x="308.800781" y="702.582031"/>
<use xlink:href="#glyph-0-20" x="315.800781" y="702.582031"/>
<use xlink:href="#glyph-0-18" x="323.800781" y="702.582031"/>
<use xlink:href="#glyph-0-18" x="329.800781" y="702.582031"/>
<use xlink:href="#glyph-0-4" x="335.800781" y="702.582031"/>
<use xlink:href="#glyph-0-9" x="342.800781" y="702.582031"/>
<use xlink:href="#glyph-0-3" x="346.800781" y="702.582031"/>
<use xlink:href="#glyph-0-18" x="353.800781" y="702.582031"/>
<use xlink:href="#glyph-0-21" x="359.800781" y="702.582031"/>
</g>
<g fill="rgb(0%, 0%, 0%)" fill-opacity="1">
<use xlink:href="#glyph-0-5" x="565.800781" y="584.476562"/>
<use xlink:href="#glyph-0-6" x="572.800781" y="584.476562"/>
<use xlink:href="#glyph-0-7" x="579.800781" y="584.476562"/>
<use xlink:href="#glyph-0-8" x="586.800781" y="584.476562"/>
<use xlink:href="#glyph-0-6" x="593.800781" y="584.476562"/>
<use xlink:href="#glyph-0-9" x="600.800781" y="584.476562"/>
</g>
<g fill="rgb(0%, 0%, 0%)" fill-opacity="1">
<use xlink:href="#glyph-0-0" x="565.800781" y="502.191406"/>
<use xlink:href="#glyph-0-1" x="572.800781" y="502.191406"/>
<use xlink:href="#glyph-0-2" x="579.800781" y="502.191406"/>
<use xlink:href="#glyph-0-3" x="582.800781" y="502.191406"/>
<use xlink:href="#glyph-0-4" x="589.800781" y="502.191406"/>
</g>
<g fill="rgb(0%, 0%, 0%)" fill-opacity="1">
<use xlink:href="#glyph-0-10" x="565.800781" y="419.90625"/>
<use xlink:href="#glyph-0-10" x="575.800781" y="419.90625"/>
<use xlink:href="#glyph-0-2" x="585.800781" y="419.90625"/>
</g>
<g fill="rgb(0%, 0%, 0%)" fill-opacity="1">
<use xlink:href="#glyph-0-2" x="565.800781" y="337.621094"/>
<use xlink:href="#glyph-0-1" x="568.800781" y="337.621094"/>
<use xlink:href="#glyph-0-2" x="575.800781" y="337.621094"/>
<use xlink:href="#glyph-0-3" x="578.800781" y="337.621094"/>
<use xlink:href="#glyph-0-4" x="585.800781" y="337.621094"/>
</g>
<g fill="rgb(0%, 0%, 0%)" fill-opacity="1">
<use xlink:href="#glyph-0-3" x="565.800781" y="255.335938"/>
<use xlink:href="#glyph-0-11" x="572.800781" y="255.335938"/>
<use xlink:href="#glyph-0-6" x="579.800781" y="255.335938"/>
<use xlink:href="#glyph-0-2" x="586.800781" y="255.335938"/>
<use xlink:href="#glyph-0-3" x="589.800781" y="255.335938"/>
</g>
<g fill="rgb(0%, 0%, 0%)" fill-opacity="1">
<use xlink:href="#glyph-0-3" x="565.800781" y="173.050781"/>
<use xlink:href="#glyph-0-5" x="572.800781" y="173.050781"/>
<use xlink:href="#glyph-0-6" x="579.800781" y="173.050781"/>
</g>
<g clip-path="url(#clip-6)">
<path fill="none" stroke-width="0.75" stroke-linecap="round" stroke-linejoin="round" stroke="rgb(74.509804%, 74.509804%, 74.509804%)" stroke-opacity="1" stroke-dasharray="0.75 2.25" stroke-miterlimit="10" d="M 612 580.113281 L 1065.601562 580.113281 "/>
</g>
<g clip-path="url(#clip-7)">
<path fill="none" stroke-width="0.75" stroke-linecap="round" stroke-linejoin="round" stroke="rgb(74.509804%, 74.509804%, 74.509804%)" stroke-opacity="1" stroke-dasharray="0.75 2.25" stroke-miterlimit="10" d="M 612 497.828125 L 1065.601562 497.828125 "/>
</g>
<g clip-path="url(#clip-8)">
<path fill="none" stroke-width="0.75" stroke-linecap="round" stroke-linejoin="round" stroke="rgb(74.509804%, 74.509804%, 74.509804%)" stroke-opacity="1" stroke-dasharray="0.75 2.25" stroke-miterlimit="10" d="M 612 415.542969 L 1065.601562 415.542969 "/>
</g>
<g clip-path="url(#clip-9)">
<path fill="none" stroke-width="0.75" stroke-linecap="round" stroke-linejoin="round" stroke="rgb(74.509804%, 74.509804%, 74.509804%)" stroke-opacity="1" stroke-dasharray="0.75 2.25" stroke-miterlimit="10" d="M 612 333.257812 L 1065.601562 333.257812 "/>
</g>
<g clip-path="url(#clip-10)">
<path fill="none" stroke-width="0.75" stroke-linecap="round" stroke-linejoin="round" stroke="rgb(74.509804%, 74.509804%, 74.509804%)" stroke-opacity="1" stroke-dasharray="0.75 2.25" stroke-miterlimit="10" d="M 612 250.972656 L 1065.601562 250.972656 "/>
</g>
<g clip-path="url(#clip-11)">
<path fill="none" stroke-width="0.75" stroke-linecap="round" stroke-linejoin="round" stroke="rgb(74.509804%, 74.509804%, 74.509804%)" stroke-opacity="1" stroke-dasharray="0.75 2.25" stroke-miterlimit="10" d="M 612 168.6875 L 1065.601562 168.6875 "/>
</g>
<path fill-rule="nonzero" fill="rgb(100%, 100%, 100%)" fill-opacity="1" stroke-width="0.75" stroke-linecap="round" stroke-linejoin="round" stroke="rgb(0%, 0%, 0%)" stroke-opacity="1" stroke-miterlimit="10" d="M 747.230469 580.113281 C 747.230469 583.714844 741.828125 583.714844 741.828125 580.113281 C 741.828125 576.515625 747.230469 576.515625 747.230469 580.113281 "/>
<path fill-rule="nonzero" fill="rgb(100%, 100%, 100%)" fill-opacity="1" stroke-width="0.75" stroke-linecap="round" stroke-linejoin="round" stroke="rgb(0%, 0%, 0%)" stroke-opacity="1" stroke-miterlimit="10" d="M 800.449219 497.828125 C 800.449219 501.429688 795.046875 501.429688 795.046875 497.828125 C 795.046875 494.230469 800.449219 494.230469 800.449219 497.828125 "/>
<path fill-rule="nonzero" fill="rgb(100%, 100%, 100%)" fill-opacity="1" stroke-width="0.75" stroke-linecap="round" stroke-linejoin="round" stroke="rgb(0%, 0%, 0%)" stroke-opacity="1" stroke-miterlimit="10" d="M 857.464844 415.542969 C 857.464844 419.144531 852.066406 419.144531 852.066406 415.542969 C 852.066406 411.941406 857.464844 411.941406 857.464844 415.542969 "/>
<path fill-rule="nonzero" fill="rgb(100%, 100%, 100%)" fill-opacity="1" stroke-width="0.75" stroke-linecap="round" stroke-linejoin="round" stroke="rgb(0%, 0%, 0%)" stroke-opacity="1" stroke-miterlimit="10" d="M 923.753906 333.257812 C 923.753906 336.855469 918.355469 336.855469 918.355469 333.257812 C 918.355469 329.65625 923.753906 329.65625 923.753906 333.257812 "/>
<path fill-rule="nonzero" fill="rgb(100%, 100%, 100%)" fill-opacity="1" stroke-width="0.75" stroke-linecap="round" stroke-linejoin="round" stroke="rgb(0%, 0%, 0%)" stroke-opacity="1" stroke-miterlimit="10" d="M 981.5 250.972656 C 981.5 254.570312 976.101562 254.570312 976.101562 250.972656 C 976.101562 247.371094 981.5 247.371094 981.5 250.972656 "/>
<path fill-rule="nonzero" fill="rgb(100%, 100%, 100%)" fill-opacity="1" stroke-width="0.75" stroke-linecap="round" stroke-linejoin="round" stroke="rgb(0%, 0%, 0%)" stroke-opacity="1" stroke-miterlimit="10" d="M 1051.5 168.6875 C 1051.5 172.285156 1046.101562 172.285156 1046.101562 168.6875 C 1046.101562 165.085938 1051.5 165.085938 1051.5 168.6875 "/>
<path fill="none" stroke-width="0.75" stroke-linecap="round" stroke-linejoin="round" stroke="rgb(0%, 0%, 0%)" stroke-opacity="1" stroke-miterlimit="10" d="M 628.800781 662.398438 L 1039.414062 662.398438 "/>
<path fill="none" stroke-width="0.75" stroke-linecap="round" stroke-linejoin="round" stroke="rgb(0%, 0%, 0%)" stroke-opacity="1" stroke-miterlimit="10" d="M 628.800781 662.398438 L 628.800781 669.601562 "/>
<path fill="none" stroke-width="0.75" stroke-linecap="round" stroke-linejoin="round" stroke="rgb(0%, 0%, 0%)" stroke-opacity="1" stroke-miterlimit="10" d="M 731.453125 662.398438 L 731.453125 669.601562 "/>
<path fill="none" stroke-width="0.75" stroke-linecap="round" stroke-linejoin="round" stroke="rgb(0%, 0%, 0%)" stroke-opacity="1" stroke-miterlimit="10" d="M 834.109375 662.398438 L 834.109375 669.601562 "/>
<path fill="none" stroke-width="0.75" stroke-linecap="round" stroke-linejoin="round" stroke="rgb(0%, 0%, 0%)" stroke-opacity="1" stroke-miterlimit="10" d="M 936.761719 662.398438 L 936.761719 669.601562 "/>
<path fill="none" stroke-width="0.75" stroke-linecap="round" stroke-linejoin="round" stroke="rgb(0%, 0%, 0%)" stroke-opacity="1" stroke-miterlimit="10" d="M 1039.414062 662.398438 L 1039.414062 669.601562 "/>
<g fill="rgb(0%, 0%, 0%)" fill-opacity="1">
<use xlink:href="#glyph-0-14" x="625.300781" y="685.304688"/>
</g>
<g fill="rgb(0%, 0%, 0%)" fill-opacity="1">
<use xlink:href="#glyph-0-12" x="727.953125" y="685.304688"/>
</g>
<g fill="rgb(0%, 0%, 0%)" fill-opacity="1">
<use xlink:href="#glyph-0-13" x="827.109375" y="685.304688"/>
<use xlink:href="#glyph-0-14" x="834.109375" y="685.304688"/>
</g>
<g fill="rgb(0%, 0%, 0%)" fill-opacity="1">
<use xlink:href="#glyph-0-13" x="929.761719" y="685.304688"/>
<use xlink:href="#glyph-0-12" x="936.761719" y="685.304688"/>
</g>
<g fill="rgb(0%, 0%, 0%)" fill-opacity="1">
<use xlink:href="#glyph-0-15" x="1032.414062" y="685.304688"/>
<use xlink:href="#glyph-0-14" x="1039.414062" y="685.304688"/>
</g>
<path fill="none" stroke-width="0.75" stroke-linecap="round" stroke-linejoin="round" stroke="rgb(0%, 0%, 0%)" stroke-opacity="1" stroke-miterlimit="10" d="M 612 662.398438 L 1065.601562 662.398438 L 1065.601562 86.398438 L 612 86.398438 Z M 612 662.398438 "/>
<g fill="rgb(0%, 0%, 0%)" fill-opacity="1">
<use xlink:href="#glyph-0-16" x="785.800781" y="702.582031"/>
<use xlink:href="#glyph-0-6" x="795.800781" y="702.582031"/>
<use xlink:href="#glyph-0-3" x="802.800781" y="702.582031"/>
<use xlink:href="#glyph-0-7" x="809.800781" y="702.582031"/>
<use xlink:href="#glyph-0-17" x="816.800781" y="702.582031"/>
<use xlink:href="#glyph-0-6" x="825.800781" y="702.582031"/>
<use xlink:href="#glyph-0-18" x="832.800781" y="702.582031"/>
<use xlink:href="#glyph-0-9" x="838.800781" y="702.582031"/>
<use xlink:href="#glyph-0-6" x="842.800781" y="702.582031"/>
<use xlink:href="#glyph-0-3" x="849.800781" y="702.582031"/>
<use xlink:href="#glyph-0-19" x="856.800781" y="702.582031"/>
<use xlink:href="#glyph-0-6" x="862.800781" y="702.582031"/>
<use xlink:href="#glyph-0-22" x="869.800781" y="702.582031"/>
<use xlink:href="#glyph-0-23" x="878.800781" y="702.582031"/>
<use xlink:href="#glyph-0-7" x="881.800781" y="702.582031"/>
<use xlink:href="#glyph-0-23" x="888.800781" y="702.582031"/>
</g>
<g fill="rgb(0%, 0%, 0%)" fill-opacity="1">
<use xlink:href="#glyph-1-0" x="512" y="24.957031"/>
<use xlink:href="#glyph-1-1" x="517" y="24.957031"/>
<use xlink:href="#glyph-1-2" x="521" y="24.957031"/>
<use xlink:href="#glyph-1-3" x="529" y="24.957031"/>
<use xlink:href="#glyph-1-4" x="541" y="24.957031"/>
<use xlink:href="#glyph-1-5" x="549" y="24.957031"/>
<use xlink:href="#glyph-1-6" x="557" y="24.957031"/>
<use xlink:href="#glyph-1-7" x="565" y="24.957031"/>
</g>
</svg>
